<svg width="60" height="60" fill="none" xmlns="http://www.w3.org/2000/svg"><g opacity=".9"><path fill="#BF9D77" d="M0 0h60v60H0z"/><path fill-rule="evenodd" clip-rule="evenodd" d="M35.453 24H24.544c-.67 0-1.212.597-1.212 1.333v1.334c0 .736.543 1.333 1.212 1.333h10.91c.669 0 1.211-.597 1.211-1.333v-1.334c0-.736-.542-1.333-1.212-1.333zm-10.909 5.333h10.91c.669 0 1.211.597 1.211 1.333V32c0 .736-.542 1.333-1.212 1.333H24.544c-.67 0-1.212-.597-1.212-1.333v-1.334c0-.736.543-1.333 1.212-1.333zm.12 1.333v1.333h10.667v-1.333H24.664zm0-5.333v1.333h10.667v-1.333H24.664zm6.668 9.334h-8V36h8v-1.333z" fill="#fff"/></g></svg>