<svg width="12" height="8" fill="none" xmlns="http://www.w3.org/2000/svg"><path fill-rule="evenodd" clip-rule="evenodd" d="M6 0c1.364 0 2.668.715 3.883 1.89a11.655 11.655 0 011.538 1.84l.172.27-.172.27a11.655 11.655 0 01-1.538 1.84C8.668 7.284 7.363 8 6 8c-1.364 0-2.668-.715-3.883-1.89A11.653 11.653 0 01.579 4.27L.406 4l.173-.27a11.653 11.653 0 011.538-1.84C3.332.716 4.636 0 6 0zm4.21 3.758A10.664 10.664 0 009.189 2.61C8.14 1.597 7.052 1 6 1c-1.053 0-2.141.597-3.188 1.61A10.663 10.663 0 001.608 4a10.663 10.663 0 001.204 1.39C3.859 6.404 4.947 7 6 7c1.052 0 2.141-.597 3.188-1.61A10.664 10.664 0 0010.392 4a10.316 10.316 0 00-.181-.242zM4 4a2 2 0 104 0 2 2 0 00-4 0zm3 0a1 1 0 11-2 0 1 1 0 012 0z" fill="#BF9D77"/></svg>