<svg width="14" height="12" fill="none" xmlns="http://www.w3.org/2000/svg"><path fill-rule="evenodd" clip-rule="evenodd" d="M12.453 0H1.544C.874 0 .332.597.332 1.333v1.334C.332 3.403.875 4 1.544 4h10.91c.669 0 1.211-.597 1.211-1.333V1.333C13.665.597 13.123 0 12.453 0zM1.544 5.333h10.91c.669 0 1.211.597 1.211 1.333V8c0 .736-.542 1.333-1.212 1.333H1.544C.874 9.333.332 8.736.332 8V6.666c0-.736.543-1.333 1.212-1.333zm.12 1.333v1.333h10.667V6.666H1.664zm0-5.333v1.333h10.667V1.333H1.664zm6.668 9.334h-8V12h8v-1.333z" fill="#fff"/></svg>