<svg width="165" height="170" fill="none" xmlns="http://www.w3.org/2000/svg"><g filter="url(#filter0_d_2231_21979)"><path fill="#fff" d="M50 30h64.628v69.091H50z"/><path fill-rule="evenodd" clip-rule="evenodd" d="M74.55 68.037l.488.98c.193-.023.198-.033 1.007-1.819.199-.439.478-1.048.62-1.353.443-.945.793-1.73.816-1.83.013-.052-.035-.105-.106-.116a.403.403 0 01-.166-.06c-.032-.032.094-.382.329-.909.259-.58.488-1.145.488-1.2 0-.037.04-.1.09-.142.07-.058.157.016.378.321l1.392 1.923c2.632 3.639 3.095 4.268 3.14 4.267.026 0 .307-.383.626-.85.319-.467.852-1.24 1.186-1.716.593-.847.902-1.29 1.842-2.638.253-.362.606-.872.784-1.133.178-.26.348-.448.377-.416.029.031.2.479.381.994.42 1.195.487 1.369.429 1.441-.015.018-.037.03-.064.05-.066.047-.12.108-.12.136 0 .027.392.846.871 1.82.479.975.87 1.8.87 1.835 0 .034-.094.062-.209.062-.114 0-.208.027-.208.06 0 .032.627 1.102 1.394 2.377 1.082 1.796 1.365 2.214 1.314 2.586-.022.16-.107.313-.216.563-.668 1.537-1.67 2.672-2.874 3.259-.863.42-1.446.547-2.345.51-.645-.026-.765-.053-1.166-.257-1.179-.603-1.99-1.885-2.515-3.974-.079-.313-.087-.321-.272-.257l-.192.067.193.742c.238.917.33 1.172.645 1.795.433.858 1.087 1.574 1.84 2.016.728.426 1.962.549 2.975.296 1.317-.33 2.51-1.11 3.271-2.14.332-.45.88-1.43.974-1.744a4.08 4.08 0 01.144-.382c.314-.713.644-2.573.702-3.956.033-.788.012-1.16-.109-1.978-.05-.333-.082-.56-.123-.787-.09-.513-.215-1.02-.64-2.752-.413-1.681-.482-2.021-.659-3.212-.073-.493-.074-.722-.003-1.197.172-1.164.25-3.315.17-4.717-.078-1.393-.08-1.41-.283-2.502a16.298 16.298 0 00-1.214-3.883 106.07 106.07 0 01-.32-.694 4.769 4.769 0 00-.236-.416 13.436 13.436 0 01-.289-.486 13.991 13.991 0 00-.489-.751 9.397 9.397 0 01-.374-.566c0-.114 1.881.579 2.82 1.039 1.555.762 2.678 1.572 4.144 2.99l.593.574.471-.42c.26-.23.483-.408.496-.393.288.298 1.988 4.658 1.988 5.097 0 .165.082.118.684-.393.319-.27.591-.482.604-.469.013.013.086.274.162.58.271 1.082.325 1.729.325 3.834 0 1.116.005 2.03.009 2.03.041 0 .881-.359 1.223-.521.103-.05.2-.076.216-.06.034.033.009.947-.057 2.107-.045.807-.318 2.563-.6 3.869-.084.39-.139.725-.121.742.017.018.353-.032.746-.111s.729-.13.746-.113c.049.049-.362 1.127-.788 2.067-.382.845-.973 1.972-1.327 2.533l-.348.555c-.095.153-.231.363-.301.466-.071.103-.129.213-.129.243s.395.045.877.034l.877-.022-.129.218c-.549.932-2.65 3.084-4.31 4.415-.361.29-.656.546-.656.57 0 .025.321.12.714.211.664.155.934.21.943.295.007.062-.125.138-.343.28-1.678 1.085-3.669 2.123-5.194 2.708l-.992.38.713.476.74.496c.063.043-.166.236-.502.425-.655.366-1.654.637-4.78 1.296-2.684.566-3.823.895-4.857 1.401l-.504.248v2.035c0 1.14.028 2.051.063 2.073.034.022.162-.172.282-.43.595-1.267 1.629-2.517 2.996-3.62 1.263-1.02 1.35-1.058 4.038-1.745 1.1-.282 1.498-.383 1.893-.496.244-.07.486-.143.892-.266.705-.214 1.987-.78 2.252-.994.17-.138.124-.196-.454-.572-.27-.175-.463-.342-.43-.371.032-.03.45-.255.929-.502 1.914-.986 3.19-1.87 4.438-3.073.429-.413.629-.592.595-.69-.029-.087-.238-.111-.63-.177-.278-.046-.505-.101-.505-.122 0-.021.26-.323.578-.67a25.579 25.579 0 003.599-5.09c0-.018-.313-.022-.696-.009-.383.013-.696.003-.696-.023s.202-.45.449-.941c.882-1.758 1.504-3.588 1.744-5.128l.044-.287-.405.101c-.844.21-1.008.242-1.048.202-.024-.024-.006-.284.039-.58.255-1.69.412-5.615.245-6.135l-.059-.184-.582.344c-.32.19-.591.335-.602.323-.011-.011-.053-.364-.093-.784-.11-1.142-.285-2.626-.322-2.724a9.682 9.682 0 01-.142-.729 10.38 10.38 0 00-.215-.989c-.215-.704-.461-1.353-.513-1.353-.03 0-.294.191-.588.425-.293.234-.543.414-.553.4a6.671 6.671 0 01-.175-.409 28.19 28.19 0 00-.217-.52 358.64 358.64 0 01-.423-.972 18.96 18.96 0 00-1.05-2.084c-.224-.384-.712-1.071-.76-1.072-.022 0-.27.265-.55.59-.447.52-.523.58-.621.499-1.06-.887-1.831-1.433-2.774-1.965-1.993-1.126-4.208-1.832-7.05-2.249-1.1-.161-1.253-.168-1.25-.051.002.048.292.29.644.538a16.7 16.7 0 012.289 1.985c2.019 2.073 3.3 4.603 3.758 7.418.122.751.115 3.416-.011 4.233-.177 1.148-.097 3.133.174 4.303.391 1.696.477 2.038.559 2.234.141.338.353 1.152.531 2.034.14.698.16.994.156 2.36-.003 1.123-.034 1.687-.109 2.01-.103.446-.105.448-.212.278a74.087 74.087 0 01-1.143-1.984l-.233-.425.552-.088-.207-.35a3.257 3.257 0 01-.207-.382c0-.017-.214-.414-.477-.881-.262-.468-.61-1.1-.774-1.405a9.182 9.182 0 00-.363-.638c-.046-.057-.002-.115.148-.192.117-.061.213-.126.213-.144 0-.02-.438-.926-.974-2.015a81.83 81.83 0 01-.975-2.017c0-.057.907-1.337.979-1.381.096-.06.075-.407-.064-1.062-.091-.43-.141-.555-.196-.486-.04.051-.187.256-.326.455-.138.2-.4.574-.58.833-1.378 1.974-3.99 6.02-4.772 7.392-.125.219-.246.399-.27.399-.023 0-.12-.116-.216-.26a128.01 128.01 0 01-1.207-1.875 465.56 465.56 0 00-2.467-3.867c-.416-.649-.998-1.563-1.293-2.03l-.538-.85-.3.662a16.38 16.38 0 00-.337.783c-.026.082.129.32.482.743.286.342.521.658.522.702.005.26-1.035 2.455-1.732 3.657-.195.337-.338.642-.316.676.021.035.149.064.284.064.161 0 .237.03.222.086-.013.048-.346.689-.742 1.424-.654 1.217-.843 1.133-.843 1.133zm8.627-18.896c0-.095.036-.35.08-.567.046-.23.112-.385.156-.37.042.013.108.257.147.54l.07.514.4-.008c.22-.004.399.012.397.035-.002.024-.241.22-.531.438l-.528.394-.508-.392c-.28-.215-.493-.416-.474-.447.018-.03.204-.035.413-.01.368.043.378.04.378-.127zm-3.38 2.332c-.093-.61.333-1.305.978-1.597.732-.333 1.557-.145 2.28.517l.192.175-.001 2.646-.852.006c-.47.003-.974.04-1.123.083l-.27.079-.366-.374c-.414-.423-.77-1.073-.839-1.535zm3.984-1.084c.224-.235.477-.385.928-.553.421-.156.729-.153 1.18.011.436.16.785.469.992.881.307.614-.01 1.614-.738 2.333-.263.26-.375.327-.488.293-.342-.103-1.293-.18-1.706-.137l-.445.045.08-2.666.197-.207zm-2.657 3.149c.025-.025.239-.067.475-.092.523-.057 3.64-.016 3.858.05.14.041.157.092.157.457v.41l-.853-.054a19.666 19.666 0 00-2.843.001l-.877.055.018-.39c.01-.215.04-.412.065-.437zm-.592 3.042c.682-.682 1.297-1.042 2.053-1.203.32-.069.462-.102.603-.101.134 0 .268.031.556.092.626.13 1.16.386 1.66.792.493.4.633.549 1.324 1.409.023.029.415-.382.872-.913l.83-.965.154.67c.085.369.156.706.158.75.002.045-.191.33-.43.635a91.77 91.77 0 00-1.988 2.686c-.22.305-.6.867-.843 1.249l-.554.867c-.557.87-1.691 3.04-1.787 3.42-.069.274-.146.235-.352-.175-.265-.526-2.598-4.6-3.154-5.505a27.38 27.38 0 00-1.62-2.37c-.346-.444-.385-.558-.27-.766.122-.22.49-1.114.49-1.19 0-.131.132-.082.216.08.153.291 1.058 1.648 1.1 1.648.023 0 .12-.117.216-.26.096-.142.44-.524.766-.85zm5.037.418a3.646 3.646 0 00-1.385-.961c-.8-.313-1.703-.214-2.53.276-.74.438-1.964 1.98-1.769 2.224.224.281 2.761 5.327 3.02 6.006.08.211.177.197.235-.034.142-.567 2.19-4.463 3.007-5.722.166-.255.302-.486.302-.511 0-.126-.545-.918-.88-1.278z" fill="#2B323C"/><path d="M83.64 40.467c-.877 1.069-2.348 2.252-3.874 3.116-.953.54-1.22.668-3.376 1.621-.804.356-1.978.906-2.608 1.223-.63.317-1.178.576-1.218.576-.05 0-.066-.53-.053-1.636.02-1.631-.015-1.862-.197-1.295-.088.272-.57 1.247-.765 1.543-.552.84-.834 1.19-1.573 1.943a30.822 30.822 0 00-2.41 2.741l-.63.8c-.046.058-.254.332-.463.607-.208.276-.404.502-.435.502-.03 0-.056-.115-.056-.256 0-.29-.226-1.15-.426-1.618-.15-.352-.473-.978-.547-1.062-.028-.03-.069.189-.093.486-.11 1.401-.468 2.795-1.092 4.254-.631 1.477-1.242 3.583-1.46 5.032-.046.305-.115.727-.153.937-.038.21-.087 1.076-.108 1.925-.021.85-.057 1.543-.08 1.542-.024-.002-.161-.15-.305-.33a15.79 15.79 0 00-.472-.564c-.116-.13-.42-.482-.678-.78-.256-.3-.49-.544-.52-.544-.086 0-.062.237.117 1.13.093.466.22 1.113.282 1.438.173.917.522 2.5.627 2.845.57 1.884.93 2.767 1.726 4.23.566 1.042 2.216 3.485 2.626 3.89.127.125.425.57.4.595-.018.017-.555-.072-1.195-.2-.64-.126-1.178-.207-1.196-.178-.017.029.155.179.383.333.488.331.966.727 2.491 2.067 1.182 1.038 2.4 2.013 2.721 2.178.104.053.23.136.281.183.22.208 1.733 1.008 2.488 1.316.451.184 1.2.436 1.446.487.143.03.261.085.262.124 0 .075-.108.106-1.168.328-.39.082-.695.173-.677.202.036.059 1.304.457 2.187.686.325.084.795.21 1.044.278.249.068.562.145.696.172 1.183.232 3.532 1.148 4.547 1.772.968.595 1.86 1.518 2.275 2.357.123.248.25.503.284.567.032.064.097.321.143.572.047.251.11.457.142.457.032 0 .058-.918.058-2.04v-2.04l-.19-.047a3.624 3.624 0 01-.483-.181c-.161-.074-.33-.134-.374-.134-.045 0-.18-.044-.3-.098-.294-.131-1.56-.526-1.687-.526a.55.55 0 01-.222-.069c-.12-.068-.762-.237-1.889-.496a6.149 6.149 0 01-.642-.17c-.031-.019-.3-.08-.598-.136a49.853 49.853 0 01-.994-.2 91.313 91.313 0 00-.83-.172c-.607-.124-.597-.14.203-.347l.975-.251c.21-.055.505-.143.655-.197.242-.086.258-.105.14-.167a1.892 1.892 0 00-.447-.117c-.892-.137-2.899-.596-3.072-.703a4.481 4.481 0 00-.497-.165c-.982-.285-2.579-1.033-3.532-1.654-.926-.604-2.274-1.815-2.089-1.876.067-.023 1.675.167 2.002.235.296.062.163-.146-.313-.494-1.013-.738-2.498-2.088-3.36-3.053l-.556-.623c-.63-.708-1.551-2.092-2.032-3.052-.416-.83-.858-2-1.035-2.738-.175-.731-.357-1.887-.305-1.939.023-.023.581.513 1.24 1.19.66.677 1.237 1.232 1.283 1.232.097 0 .112-.113.021-.169-.034-.02-.083-.124-.11-.23a2.844 2.844 0 00-.142-.4c-.125-.273-.403-1.119-.582-1.769-.123-.444-.18-.698-.333-1.457-.239-1.198-.302-3.728-.127-5.066.138-1.053.484-2.51.732-3.089.033-.076.145-.357.248-.624.28-.722.787-1.77.857-1.77.154 0 .56 1.296.563 1.804.005.509.164.74.251.365.384-1.655 1.325-3.646 2.39-5.06.41-.543 1.88-2.044 2.303-2.35.157-.114.397-.293.534-.398.407-.31.452-.272.404.347-.037.47-.183 1.336-.287 1.7-.068.238.082.117.252-.202.35-.658 1.126-1.399 2.172-2.073.741-.479 2.474-1.463 3.398-1.93 1.608-.813 3.77-1.933 4.589-2.377.169-.092.318-.156.332-.143.077.078-.595 1.315-1.288 2.37-.76 1.16-1.435 1.947-2.974 3.47-1.902 1.885-2.675 2.906-4.056 5.359l-.282.5.674-.337c1.365-.684 2.316-1.124 2.382-1.102.19.063-.439.895-1.67 2.208-1.667 1.778-1.989 2.222-2.41 3.322-.243.634-.58 1.852-.79 2.855a14.77 14.77 0 01-.167.729c-.037.119-.396 2.51-.396 2.636 0 .024.54-.457 1.2-1.07.778-.721 1.21-1.077 1.224-1.01.026.12-.167 1.038-.262 1.248-.035.076-.163.451-.286.833-.122.382-.263.819-.314.971-.38 1.153-.364 3.017.039 4.373.24.81.381 1.237.536 1.63.252.642.996 2.112 1.316 2.603l.271.416.049-.833c.06-1.019.175-1.936.282-2.238.09-.254.23-.295.296-.087.075.236.828 1.537 1.185 2.048.422.604 1.469 1.644 2.06 2.048l.753.512c.412.278 2.525 1.5 2.594 1.5.03 0-.008-.166-.084-.368-.492-1.31-.548-3.122-.128-4.163.072-.177.085-.183.162-.07.046.069.123.28.17.471.13.537.609 1.685.92 2.207.545.919 1.381 1.671 2.236 2.012.606.242.684.25.752.073.051-.135-.005-.185-.548-.486-1.1-.61-1.666-1.328-2.24-2.834a47.066 47.066 0 00-.255-.66c-.121-.3-.331-1.037-.683-2.394-.174-.672-.409-1.321-.571-1.578-.215-.341-.409-.347-.471-.016-.058.305-.296 1.037-.74 2.272-.535 1.487-.663 2.228-.523 3.018.029.162.032.295.007.295-.11 0-.878-.398-1.302-.674-.828-.541-1.773-1.568-2.286-2.484-.201-.36-.421-1.038-.772-2.382-.351-1.344-.346-1.291-.126-1.317l-.489-.979c-.07-.173-.444-1.06-.576-1.17-.094-.077-.11.077-.146 1.388-.028 1.033-.082 1.703-.18 2.23-.077.415-.155.77-.173.788-.065.065-.46-.44-.665-.853-.35-.702-.45-1.204-.446-2.216.005-1 .155-1.868.488-2.81.143-.405 1.118-2.887 1.24-3.158.31-.684 1.08-3.235 1.08-3.578 0-.16-.152-.026-.546.481-.538.694-1.597 1.734-2.17 2.131-.242.169-.469.307-.502.307-.12 0 .197-1.694.44-2.36.522-1.43.857-1.914 2.356-3.4 1.167-1.158 2.062-2.23 2.75-3.297.588-.912.722-1.128.975-1.582l.264-.472-.397.214c-.954.515-3.043 1.538-3.075 1.507-.062-.062.24-.576.664-1.134.544-.713 1.208-1.39 2.013-2.053 2.608-2.146 4.524-4.488 5.437-6.647.121-.286.248-.57.28-.63.08-.145.492-1.518.492-1.637 0-.181-.13-.085-.512.381z" fill="#983031"/></g><defs><filter id="filter0_d_2231_21979" x="0" y="0" width="164.629" height="169.091" filterUnits="userSpaceOnUse" color-interpolation-filters="sRGB"><feFlood flood-opacity="0" result="BackgroundImageFix"/><feColorMatrix in="SourceAlpha" values="0 0 0 0 0 0 0 0 0 0 0 0 0 0 0 0 0 0 127 0" result="hardAlpha"/><feOffset dy="20"/><feGaussianBlur stdDeviation="25"/><feColorMatrix values="0 0 0 0 0.216667 0 0 0 0 0.123809 0 0 0 0 0.0541667 0 0 0 0.1 0"/><feBlend in2="BackgroundImageFix" result="effect1_dropShadow_2231_21979"/><feBlend in="SourceGraphic" in2="effect1_dropShadow_2231_21979" result="shape"/></filter></defs></svg>