<svg width="11" height="10" fill="none" xmlns="http://www.w3.org/2000/svg"><path fill-rule="evenodd" clip-rule="evenodd" d="M5.427 3.169c.259-.35.352-.717.059-1.042-.658-.92-1.1-1.489-1.377-1.763-.528-.52-1.395-.45-1.852 0-.245.242-.328.324-.58.58C.274 2.348 1.13 5.315 3.404 7.592c2.274 2.276 5.24 3.131 6.647 1.725.232-.224.429-.421.584-.585.447-.473.515-1.302-.003-1.84-.266-.277-.808-.698-1.767-1.384-.294-.262-.642-.205-.961.004-.153.101-.265.203-.476.414l-.383.383c-.05.05-.736-.292-1.401-.958C4.978 4.685 4.635 4 4.686 3.949l.383-.383c.067-.067.099-.1.14-.143.086-.09.156-.171.218-.254zM7.75 7.016l.384-.383c.116-.116.191-.188.252-.237.84.603 1.326.982 1.525 1.189.12.124.1.35-.003.46-.143.151-.33.338-.559.558-.909.91-3.304.219-5.239-1.718C2.175 4.947 1.484 2.55 2.387 1.649c.25-.255.33-.334.572-.573.09-.089.337-.11.448 0 .213.21.61.718 1.192 1.53a2.1 2.1 0 01-.114.128 6.645 6.645 0 01-.123.125l-.383.383c-.651.651-.096 1.76.958 2.816 1.054 1.055 2.163 1.61 2.814.958z" fill="#BF9D77"/></svg>