<svg width="40" height="40" fill="none" xmlns="http://www.w3.org/2000/svg"><path fill="#BF9D77" d="M0 0h40v40H0z"/><path fill-rule="evenodd" clip-rule="evenodd" d="M18.858 16.338c.518-.698.703-1.434.117-2.084-1.315-1.84-2.199-2.977-2.754-3.525-1.054-1.042-2.789-.901-3.702-.001-.49.483-.657.649-1.16 1.16-2.806 2.808-1.095 8.742 3.453 13.295 4.548 4.552 10.482 6.264 13.293 3.45.465-.447.858-.841 1.169-1.169.895-.946 1.03-2.604-.006-3.682-.532-.552-1.617-1.393-3.534-2.765-.587-.525-1.284-.411-1.922.007-.307.202-.53.406-.953.828l-.766.767c-.1.1-1.471-.586-2.801-1.917-1.331-1.333-2.017-2.703-1.917-2.803l.767-.768c.134-.134.198-.198.28-.285.171-.18.313-.343.436-.508zm4.649 7.695l.766-.767c.232-.232.383-.375.505-.474 1.68 1.206 2.653 1.965 3.05 2.378.239.248.201.7-.006.919-.287.303-.66.677-1.117 1.118-1.818 1.819-6.608.437-10.479-3.438-3.872-3.876-5.253-8.666-3.449-10.471.502-.51.66-.669 1.144-1.145.182-.179.676-.22.896-.001.427.422 1.22 1.436 2.385 3.06-.06.074-.136.159-.228.255a13.3 13.3 0 01-.246.25l-.766.767c-1.303 1.303-.193 3.52 1.916 5.632 2.107 2.11 4.326 3.22 5.629 1.917z" fill="#fff"/></svg>