<svg width="24" height="24" fill="none" xmlns="http://www.w3.org/2000/svg"><path fill="#BF9D77" d="M0 0h24v24H0z"/><path d="M17.88 15.28c0-.047-.052-.047-.052-.095-.207-.384-.673-.863-1.294-1.39-.31-.24-.465-.432-.568-.528-.156-.192-.156-.335-.104-.527.052-.144.259-.384.62-.815.208-.24.311-.384.466-.528.776-.959 1.138-1.582 1.035-1.87l-.052-.048c-.052-.047-.104-.095-.207-.095-.103-.048-.259-.048-.414 0h-2.327l-.052.047c-.052.048-.052.048-.052.096-.207.528-.465.96-.724 1.439-.155.24-.31.48-.465.671-.156.192-.259.336-.362.431-.104.096-.207.144-.26.24-.05.048-.154.096-.154.048-.052 0-.104 0-.104-.048l-.155-.144c-.052-.048-.052-.143-.103-.24V9.527c0-.048-.052-.143-.052-.191l-.155-.144c-.052-.048-.155-.048-.207-.096A4.99 4.99 0 0011.207 9c-.828 0-1.397.048-1.604.144-.103.048-.206.096-.258.192-.104.096-.104.143-.052.143.259.048.466.144.57.288l.05.096c.053.048.052.144.104.288.052.143.052.287.052.48v.766c0 .24-.052.384-.052.528 0 .143-.051.24-.103.287-.052.096-.052.144-.104.144 0 0 0 .048-.051.048-.052 0-.104.048-.207.048a.405.405 0 01-.207-.096.603.603 0 01-.259-.24 1.672 1.672 0 01-.31-.431c-.104-.192-.259-.384-.362-.671l-.104-.192c-.051-.096-.155-.288-.258-.527-.104-.24-.207-.432-.31-.672a.67.67 0 00-.156-.191h-.052s-.051-.048-.103-.048-.103-.048-.155-.048H5.414c-.207 0-.31.048-.362.095L5 9.48v.096c0 .048 0 .096.052.192.258.575.569 1.15.879 1.726.31.527.62 1.007.828 1.343.258.335.465.67.724.958.258.288.414.48.465.576l.207.192.155.144c.104.095.259.24.466.383.207.144.465.288.724.431.259.144.569.24.88.336.361.096.672.144.982.096h.776a.488.488 0 00.362-.144l.052-.048c0-.048.051-.048.051-.096v-.191c0-.192 0-.336.052-.48.052-.144.052-.24.104-.335a.667.667 0 01.155-.192l.103-.096h.052c.103-.048.258 0 .362.096.155.096.31.24.414.383.103.144.258.288.465.48.207.192.362.335.466.383l.155.096c.103.048.207.096.362.144.155.048.259.048.362.048l1.759-.048c.155 0 .31-.048.413-.096.104-.048.156-.096.156-.192v-.191c-.104-.096-.104-.144-.104-.192z" fill="#fff"/></svg>