<svg width="24" height="24" fill="none" xmlns="http://www.w3.org/2000/svg"><path fill="#BF9D77" d="M0 0h24v24H0z"/><path d="M12.888 8.613c.72.178 1.364.586 1.842 1.163a3.623 3.623 0 01.292 4.193 3.51 3.51 0 01-1.663 1.417m0 0l-.491-3.93.541-.642h-.556l.039-2.201V8.53h.412v-.286l-1.342-.996-1.342.996v.288h.412v.137m2.327 6.716L13.688 18a6.012 6.012 0 003.353-2.556 6.225 6.225 0 00.9-4.171 6.16 6.16 0 00-1.99-3.757A5.93 5.93 0 0012.04 6a5.928 5.928 0 00-3.932 1.464 6.157 6.157 0 00-2.038 3.73 6.227 6.227 0 00.848 4.184 6.017 6.017 0 003.32 2.6l.339-2.675.482-3.853-.542-.642h.557l-.04-2.138m0 0A3.494 3.494 0 009.33 9.86a3.626 3.626 0 00-.278 4.015c.356.62.886 1.117 1.522 1.424" stroke="#fff" stroke-linecap="round" stroke-linejoin="round"/></svg>