<svg width="16" height="16" fill="none" xmlns="http://www.w3.org/2000/svg"><path fill-rule="evenodd" clip-rule="evenodd" d="M7.142 5.253c.389-.523.528-1.075.089-1.563-.987-1.38-1.65-2.233-2.066-2.644-.79-.781-2.092-.675-2.777 0-.368.362-.492.486-.87.87-2.104 2.106-.821 6.556 2.59 9.971 3.41 3.414 7.861 4.698 9.97 2.588.348-.336.644-.631.876-.877.672-.71.773-1.954-.004-2.761-.399-.415-1.212-1.046-2.65-2.075-.441-.393-.963-.308-1.442.006-.23.151-.398.304-.714.62l-.575.576c-.076.075-1.104-.44-2.101-1.438-.998-1-1.513-2.027-1.437-2.102l.575-.576c.1-.1.148-.149.21-.214.128-.134.234-.257.326-.38zm3.487 5.771l.574-.575c.175-.174.287-.281.38-.355 1.259.904 1.989 1.473 2.287 1.783.179.186.15.525-.005.69-.215.227-.495.507-.838.838-1.363 1.364-4.956.327-7.859-2.579-2.904-2.906-3.94-6.5-2.587-7.853.377-.382.496-.502.859-.859.136-.134.506-.164.671 0 .32.316.915 1.077 1.789 2.294-.045.056-.102.12-.17.192-.051.053-.093.096-.185.188l-.575.575c-.977.977-.145 2.64 1.437 4.223 1.58 1.583 3.245 2.416 4.222 1.438z" fill="#BF9D77"/></svg>