<svg width="18" height="18" fill="none" xmlns="http://www.w3.org/2000/svg"><path fill-rule="evenodd" clip-rule="evenodd" d="M9 17.25A8.25 8.25 0 119 .75a8.25 8.25 0 010 16.5zm5.55-4.406a6.75 6.75 0 10-11.1-.001C4.294 11.728 6.278 11.25 9 11.25s4.705.479 5.55 1.594zm-1.077 1.211c-.219-.79-1.796-1.305-4.474-1.305-2.676 0-4.253.515-4.473 1.304A6.725 6.725 0 009 15.75c1.716 0 3.282-.64 4.473-1.695zM9 4.5c-1.816 0-3 1.317-3 3 0 2.57 1.32 3.75 3 3.75 1.664 0 3-1.14 3-3.6 0-1.709-1.19-3.15-3-3.15zm-1.5 3c0 1.702.614 2.25 1.5 2.25.883 0 1.5-.526 1.5-2.1C10.5 6.713 9.912 6 9 6c-.95 0-1.5.612-1.5 1.5z" fill="#BF9D77"/></svg>