<svg width="42" height="42" fill="none" xmlns="http://www.w3.org/2000/svg"><g opacity=".9"><path fill="#7294C7" d="M0 0h42v42H0z"/><mask id="path-1-inside-1_2231_21997" fill="#fff"><path d="M31.138 25.767c0-.082-.083-.082-.083-.164-.328-.658-1.068-1.48-2.054-2.384-.494-.41-.74-.74-.905-.904-.246-.329-.246-.575-.164-.904.082-.247.411-.658.987-1.397.328-.411.493-.658.74-.904 1.232-1.644 1.807-2.713 1.643-3.206l-.082-.082c-.082-.082-.165-.164-.329-.164-.164-.083-.41-.083-.657 0h-3.699l-.082.082c-.082.082-.082.082-.082.164-.33.904-.74 1.644-1.151 2.466-.247.41-.493.822-.74 1.15-.247.33-.41.576-.575.74-.165.165-.329.247-.411.411-.082.082-.247.165-.247.082-.082 0-.164 0-.164-.082l-.247-.246c-.082-.082-.082-.247-.164-.411v-4.11c0-.082-.082-.246-.082-.329l-.247-.246c-.082-.082-.247-.082-.329-.165a7.37 7.37 0 00-1.48-.164c-1.314 0-2.218.082-2.547.247-.164.082-.329.164-.411.328-.164.165-.164.247-.082.247.41.082.74.247.904.493l.082.165c.082.082.082.246.165.493.082.246.082.493.082.822v1.315c0 .41-.082.657-.082.904 0 .246-.083.41-.165.493-.082.164-.082.246-.164.246 0 0 0 .083-.082.083-.083 0-.165.082-.33.082-.081 0-.246-.082-.328-.165a.99.99 0 01-.411-.41c-.164-.165-.329-.412-.493-.74-.165-.329-.411-.658-.576-1.15l-.164-.33a11.64 11.64 0 01-.41-.904c-.165-.41-.33-.74-.494-1.15-.082-.165-.164-.247-.247-.33H14.7s-.082-.082-.164-.082-.165-.082-.247-.082H11.33c-.328 0-.493.083-.575.165l-.082.082v.164c0 .082 0 .165.082.33.411.985.904 1.972 1.397 2.958.494.904.987 1.726 1.315 2.301.411.576.74 1.151 1.151 1.644.411.493.658.822.74.986l.329.33.246.246c.164.164.411.41.74.657.329.247.74.494 1.15.74.412.247.905.411 1.398.575.575.165 1.068.247 1.562.165h1.232a.746.746 0 00.576-.247l.082-.082c0-.082.082-.082.082-.164v-.33c0-.328 0-.574.082-.821.083-.247.083-.411.165-.575.082-.165.164-.247.246-.33l.165-.163h.082c.164-.083.41 0 .575.164a2.5 2.5 0 01.658.657c.164.247.41.494.74.822.328.33.575.576.74.658l.246.164c.164.082.329.165.575.247.247.082.411.082.575.082l2.795-.082c.247 0 .493-.082.657-.165.165-.082.247-.164.247-.328v-.33c-.164-.163-.164-.246-.164-.328z"/></mask><path d="M31.055 25.603h1v-.236l-.105-.212-.895.448zm-2.054-2.384l.675-.737-.017-.016-.018-.015-.64.768zm-.905-.904l-.8.6.043.057.05.05.707-.707zm-.164-.904l-.948-.316-.013.036-.009.037.97.243zm.987-1.397l-.782-.625-.008.01.79.615zm.74-.904l.706.707.05-.05.043-.057-.8-.6zm1.643-3.206l.949-.316-.075-.224-.167-.167-.707.707zm-.082-.082l.707-.707-.707.707zm-.329-.164l-.447.894.211.105h.236v-1zm-.657 0v1h.162l.154-.052-.317-.949zm-3.7 0v-1h-.413l-.293.292.707.708zm-.081.082l-.707-.707.707.707zm-.082.164l.94.342.06-.166v-.176h-1zM25.22 18.37l.857.514.02-.033.017-.034-.894-.447zm-1.726 2.301l.707.707.115-.114.072-.146-.894-.447zm-.247.082h1v-1h-1v1zm-.164-.082h1v-.414l-.293-.293-.707.707zm-.411-.657h-1v.236l.105.21.895-.446zm-.082-4.439h1v-.414l-.293-.293-.707.707zm-.576-.41l.707-.708-.214-.214-.297-.06-.196.981zm-4.438.41l.707.707.115-.114.072-.145-.894-.448zm-.082.247l.196-.98-.097-.02h-.1v1zm.904.493l.894-.447-.027-.056-.035-.052-.832.555zm.082.165l-.894.447.072.145.115.115.707-.707zm0 4.027l-.707-.707-.115.114-.072.146.894.447zm-.164.246v-1h-1v1h1zm-.74 0l.707-.707-.115-.114-.145-.073-.447.894zm-.411-.41l.895-.448-.073-.145-.115-.115-.707.707zm-1.069-1.89l.95-.317-.023-.068-.032-.063-.895.447zm-.164-.33l.895-.447-.895.447zm-.904-2.055l.928-.37-.015-.04-.019-.037-.894.447zm-.247-.328l.708-.707-.293-.293h-.415v1zm-.082 0l-.707.707.293.293h.414v-1zm-4.027.082l-.707-.707-.293.293v.414h1zm.082.493l.923-.385-.013-.031-.015-.031-.895.447zm1.397 2.959l-.894.447.008.016.008.016.878-.479zm1.315 2.301l-.868.497.025.043.03.042.813-.582zm1.89 2.63l-.894.448.073.145.115.115.707-.707zm.33.33l-.707.706.707-.707zm.246.246l.707-.707-.707.707zm3.288 1.972l-.316.95.02.006.021.006.275-.962zm1.562.165v-1h-.083l-.082.013.165.987zm1.808-.247l.707.707-.707-.707zm.082-.082l.707.707.293-.293v-.414h-1zm.74-2.383v-1h-.415l-.292.292.707.707zm.082 0v1h.236l.211-.106-.447-.895zm.575.164l-.707.707.07.07.082.055.555-.832zm2.137 2.137l.555-.832-.052-.035-.056-.028-.447.895zm.247.164l-.555.832.052.035.056.028.447-.895zm1.15.329v1h.03l-.03-1zm2.795-.082v-1h-.029l.029 1zm.904-.822h1v-.414l-.293-.293-.707.707zm.836-.329a1.102 1.102 0 00-.276-.728l-.058-.061c-.01-.009.008.008.027.03a.888.888 0 01.19.352.898.898 0 01.035.243h-2a1.102 1.102 0 00.276.728.82.82 0 00.058.061.883.883 0 01-.218-.383.898.898 0 01-.034-.242h2zm-.188-.611c-.418-.836-1.281-1.765-2.274-2.674l-1.351 1.474c.98.9 1.597 1.615 1.836 2.094l1.789-.895zm-2.31-2.705c-.46-.384-.552-.559-.836-.843l-1.415 1.414c.045.045.445.527.971.965l1.28-1.536zm-.744-.736c-.025-.035-.03-.048-.028-.043a.165.165 0 01.013.05c.003.022.001.034.002.026a.726.726 0 01.02-.095l-1.941-.485a2.149 2.149 0 00-.06.836c.049.348.195.646.395.911l1.6-1.2zm-.015.012c-.015.043-.003-.006.168-.242.152-.209.364-.478.659-.857L28.129 19.4c-.28.36-.52.666-.697.91-.157.215-.352.495-.448.785l1.897.632zm.818-1.089c.39-.487.471-.626.666-.821l-1.414-1.415c-.298.299-.546.653-.813.987l1.561 1.25zm.76-.928c.626-.837 1.117-1.566 1.433-2.174.157-.303.288-.61.365-.906.072-.283.121-.66-.006-1.042l-1.898.632c-.045-.136-.006-.194-.034-.087a2.45 2.45 0 01-.202.482c-.24.46-.653 1.087-1.259 1.895l1.6 1.2zm1.55-4.513l-.082-.082-1.414 1.414.082.082 1.414-1.414zm-.082-.082c-.093-.093-.432-.457-1.036-.457v2a.651.651 0 01-.396-.146l.018.017 1.414-1.414zm-.589-.352c-.485-.242-1.028-.185-1.42-.054l.632 1.897c.031-.01.048-.01.043-.01-.003 0-.017 0-.04-.005a.45.45 0 01-.11-.039l.895-1.789zm-1.105-.105H27.11v2h3.123v-2zm-3.123 0h-.247v2h.247v-2zm-.246 0H26.7v2h.164v-2zm-.165 0h-.082v2h.082v-2zm-.082 0h-.082v2h.082v-2zm-.79.292l-.081.083 1.414 1.414.082-.082-1.414-1.415zm-.081.083c-.013.013-.05.05-.084.087a1.09 1.09 0 00-.285.636c-.008.073-.007.146-.007.148h2c0-.039.002.003-.003.05a.908.908 0 01-.092.315.84.84 0 01-.115.178l-1.414-1.414zm-.315.53c-.303.833-.672 1.493-1.106 2.36l1.79.894c.388-.777.84-1.596 1.195-2.571l-1.88-.684zm-1.069 2.292c-.254.424-.472.786-.682 1.066l1.6 1.2c.284-.379.558-.838.797-1.237l-1.715-1.029zm-.682 1.066c-.303.404-.385.535-.482.632l1.414 1.414c.231-.231.478-.593.668-.846l-1.6-1.2zm-.482.632c-.048.048-.046.039-.18.153-.1.086-.286.253-.419.518l1.79.894c-.05.1-.113.144-.07.107a2.871 2.871 0 01.106-.088c.051-.043.117-.1.187-.17l-1.414-1.414zm-.411.411a.49.49 0 01.181-.118c.012-.005.2-.087.458-.048a.97.97 0 01.821.955h-2a1.031 1.031 0 00.875 1.022c.293.045.526-.047.59-.073a1.5 1.5 0 00.489-.324l-1.414-1.414zm.46-.21h.006a.789.789 0 01.197.04.926.926 0 01.632.877h-2a1.075 1.075 0 00.735 1.02c.133.045.247.055.303.059.059.004.114.003.127.003v-2zm.543.21l-.123-.123-.124-.123-1.414 1.414.123.123.124.123 1.414-1.414zm-.247-.246a.765.765 0 01.162.232.248.248 0 01.014.038l-.003-.013-.007-.023-.01-.033a1.857 1.857 0 00-.134-.353l-1.788.895c-.01-.021-.017-.049.016.064.01.04.036.128.077.223.044.099.12.245.26.384l1.413-1.415zm.129.296v-.412h-2v.412h2zm0-.411v-.493h-2v.493h2zm0-.493v-.493h-2v.493h2zm0-.494v-.903h-2v.903h2zm0-.904v-.74h-2v.741h2zm0-.74v-.574h-2v.575h2zm0-.575v-.492h-2v.493h2zm0-.493a1.191 1.191 0 00-.048-.337 3.63 3.63 0 00-.044-.143l-.013-.037c.001.004.006.02.01.046a.802.802 0 01.013.142h-2a1.191 1.191 0 00.048.338c.016.06.036.119.044.143l.012.037a.804.804 0 01-.022-.189h2zm-.375-1.036l-.123-.123a143.16 143.16 0 00-.124-.123l-1.414 1.414.123.123.124.123 1.414-1.414zm-.247-.246a1.246 1.246 0 00-.368-.252c-.084-.039-.166-.065-.187-.072-.04-.014-.02-.008.008.005a.743.743 0 01.218.154l-1.414 1.414c.137.137.28.212.368.252.085.039.167.065.188.072.04.014.02.008-.008-.005a.756.756 0 01-.219-.154l1.414-1.414zm-.84-.438A8.362 8.362 0 0020.535 14v2c.48 0 .899.068 1.283.145l.392-1.961zM20.535 14c-.674 0-1.264.02-1.739.066-.425.04-.906.111-1.256.286l.894 1.789c-.02.01.115-.042.552-.084.388-.037.908-.057 1.549-.057v-2zm-2.995.352c-.1.05-.602.263-.858.776l1.788.895a.525.525 0 01-.138.17c-.007.006-.005.004.014-.007a2.74 2.74 0 01.088-.045l-.894-1.789zm-.671.516a1.863 1.863 0 00-.203.237c-.056.08-.146.222-.194.413-.048.192-.084.595.224.947.283.323.647.357.798.357v-2c.11 0 .442.023.707.326.29.331.25.704.212.855a.769.769 0 01-.115.258c-.02.029-.03.036-.015.021l-1.414-1.414zm.429 1.934c.134.027.222.061.27.087.048.026.03.028-.002-.02l1.664-1.109c-.382-.572-1.028-.816-1.54-.919l-.392 1.961zm.206-.04l.082.165 1.789-.895-.083-.164-1.789.894zm.269.425a.771.771 0 01-.183-.29c-.002-.004 0-.002.002.01a4.596 4.596 0 01.034.139c.016.067.039.15.07.243l1.897-.633c-.025-.074-.028-.102-.06-.234a1.742 1.742 0 00-.081-.25 1.23 1.23 0 00-.265-.4l-1.414 1.415zm-.077.102c.021.065.03.141.03.505h2c0-.293.01-.71-.133-1.138l-1.897.633zm.03.505v1.316h2v-1.315h-2zm0 1.316c0 .135-.012.245-.03.372-.015.105-.052.318-.052.532h2c0-.034.005-.066.032-.25a4.45 4.45 0 00.05-.654h-2zm-.081.904c0 .012-.002-.005.012-.043a.49.49 0 01.116-.171l1.414 1.414c.303-.303.457-.74.457-1.2h-2zm-.06.046a2.72 2.72 0 00-.077.17c-.023.057-.014.034-.005.014.01-.02.079-.16.237-.287a.927.927 0 01.576-.204v2a1.073 1.073 0 00.976-.614c.03-.06.06-.135.062-.14a.7.7 0 01.02-.045l-1.788-.894zm.73.693h-1v-.015l.001-.017a.778.778 0 01.012-.12.927.927 0 01.905-.766v2a1.072 1.072 0 001.08-1.007.94.94 0 00.002-.04v-.033c0-.001 0-.002-1-.002zm-.082-.917a1.185 1.185 0 00-.476.1c-.023.01-.021.01-.029.012-.004.002.018-.007.052-.015a.536.536 0 01.125-.015v2a1.462 1.462 0 00.566-.113l.046-.018c.008-.004 0 0-.014.004a.814.814 0 01-.27.045v-2zm-.328.082a.82.82 0 01.229.033.38.38 0 01.08.037.48.48 0 01.07.058l-1.415 1.415c.14.14.3.238.424.3a1.4 1.4 0 00.612.157v-2zm.118-.059a.176.176 0 01.027.016l-.003-.003-.003-.003s.007.009.015.026l-1.788.895c.179.358.5.679.858.858l.894-1.789zm-.15-.224c-.058-.057-.166-.198-.307-.48l-1.788.895c.187.376.409.728.68 1l1.414-1.415zm-.307-.48c-.092-.183-.242-.434-.308-.552a2.699 2.699 0 01-.213-.467l-1.897.632c.109.328.243.593.362.807.14.252.195.33.268.475l1.788-.895zm-.575-1.15l-.164-.329-1.79.895.165.328 1.789-.894zm-.164-.329c-.08-.16-.23-.458-.377-.828l-1.857.743c.18.451.36.81.445.98l1.789-.895zm-.377-.828a15.24 15.24 0 00-.262-.61 15.254 15.254 0 01-.231-.54l-1.857.742c.09.225.18.427.26.61.084.187.159.355.233.54l1.857-.742zm-.527-1.227c-.156-.312-.332-.486-.434-.588l-1.415 1.414.05.05c0 .001 0 0 0 0v.001l.01.018 1.788-.895zm-1.142-.881H14.7v2h.082v-2zm-.082 1l.707-.708h-.001l-.002-.002-.003-.003a.433.433 0 00-.022-.022 1.271 1.271 0 00-.175-.139 1.21 1.21 0 00-.668-.208v2a.839.839 0 01-.311-.06.71.71 0 01-.21-.13l-.011-.01a.257.257 0 01-.005-.006l-.003-.002-.001-.002h-.001l.706-.708zm-.164-1.082a.826.826 0 01.332.068l-.008-.004-.054-.026a1.174 1.174 0 00-.517-.12v2a.827.827 0 01-.29-.052l-.042-.017.008.004a2.061 2.061 0 00.158.07c.083.031.229.076.413.076v-2zm-.247-.083H11.33v2h2.96v-2zm-2.959 0c-.482 0-.946.122-1.282.458l1.414 1.414a.525.525 0 01-.196.128c-.032.011-.02 0 .064 0v-2zm-1.282.458l-.082.082 1.414 1.414.082-.082-1.414-1.414zm.625.789h-1v.165h2v-.164h-1zm-1 .164c0 .043-.002.172.03.33.031.157.086.304.158.446l1.789-.894c-.011-.022.003.001.014.056.01.055.009.102.009.062h-2zm.159.714c.427 1.023.936 2.04 1.426 3.021l1.789-.894c-.496-.992-.973-1.948-1.369-2.897l-1.846.77zm1.442 3.053c.499.914 1.011 1.77 1.325 2.319l1.737-.993c-.344-.602-.818-1.39-1.306-2.284l-1.756.958zm1.38 2.404c.193.27.36.53.557.826.188.283.398.587.639.876l1.536-1.28a8.218 8.218 0 01-.511-.706c-.173-.26-.376-.574-.594-.879l-1.627 1.163zm1.196 1.702c.2.24.352.431.461.577.12.16.155.221.152.217l1.79-.895c-.145-.289-.477-.711-.867-1.179l-1.536 1.28zm.8 1.054c.04.039-.008-.01.03.03l.029.027.026.027.006.006.003.003.004.003.012.013.023.023.006.006.001.001.002.002h.001v.002h.001l.003.003.003.003.001.001.002.002.002.002.021.021.01.01a.229.229 0 00.01.01l.019.019.004.004.005.005.009.009.034.033c.028.03.035.036.063.063l1.414-1.414-.063-.063c-.03-.03.013.014-.017-.016l-.017-.018-.009-.009-.005-.004c-.007-.007.003.003-.004-.005l-.019-.018-.086-.086-.11-.11-1.413 1.415zm.33.328l.246.247 1.414-1.414-.246-.247-1.415 1.414zm.246.247c.167.167.457.458.847.75l1.2-1.6c-.267-.2-.47-.402-.633-.564l-1.414 1.414zm.847.75c.378.284.838.559 1.236.798l1.03-1.715c-.424-.254-.787-.473-1.066-.683l-1.2 1.6zm1.236.798c.523.313 1.127.51 1.596.666l.632-1.897c-.517-.173-.9-.305-1.199-.484l-1.029 1.715zm1.637.679c.624.178 1.288.308 2 .19l-.328-1.974c-.274.046-.596.011-1.122-.14l-.55 1.924zm1.837.203h1.232v-2h-1.232v2zm1.232 0c.24 0 .485-.041.725-.148.236-.105.417-.25.558-.392l-1.414-1.414c-.024.023-.007 0 .044-.022a.322.322 0 01.067-.021c.018-.004.026-.003.02-.003v2zm1.283-.54l.082-.082-1.414-1.414-.082.082 1.414 1.414zm.375-.789a.902.902 0 01-.224.595l-.028.03c.002-.002.029-.028.058-.061a1.124 1.124 0 00.235-.431c.029-.102.041-.202.041-.297h-2a.898.898 0 01.224-.596c.02-.021.037-.038.028-.03l-.058.062a1.116 1.116 0 00-.236.431 1.12 1.12 0 00-.04.297h2zm.082-.164v-.329h-2v.329h2zm0-.33c0-.363.01-.44.031-.505l-1.897-.632c-.143.428-.134.845-.134 1.138h2zm.031-.505c.061-.183.093-.344.11-.418.019-.085.018-.063 0-.026l-1.789-.895c-.1.201-.142.389-.164.487-.024.112-.033.157-.054.22l1.897.632zm.11-.444l.01-.018c.002-.002.005-.007.05-.051l-1.415-1.414c-.103.103-.278.277-.434.588l1.79.895zm.06-.069l.112-.113.038-.037.01-.01.003-.003v-.001l-.706-.707-.707-.708-.001.001-.003.003-.01.01-.038.038-.113.113 1.414 1.414zm-.543.128h.082v-2h-.082v2zm.529-.105a.616.616 0 01-.447.053.3.3 0 01-.132-.076l1.414-1.414a1.7 1.7 0 00-.707-.426 1.389 1.389 0 00-1.022.074l.894 1.789zm-.427.102c.137.091.29.243.38.38l1.665-1.11a3.498 3.498 0 00-.935-.934l-1.11 1.664zm.38.38c.232.348.562.671.865.974l1.415-1.414c-.355-.354-.518-.523-.615-.67l-1.664 1.11zm.865.974c.16.16.32.32.463.452.125.114.317.284.537.393l.894-1.789c.04.02.052.033.027.013a1.835 1.835 0 01-.106-.092c-.104-.095-.23-.221-.4-.39l-1.415 1.413zm.892.783l.247.164 1.11-1.664-.247-.164-1.11 1.664zm.355.227c.17.085.388.195.706.3l.632-1.897a3.035 3.035 0 01-.444-.192l-.894 1.789zm.706.3c.403.135.698.134.891.134v-2c-.086 0-.116 0-.146-.004a.522.522 0 01-.113-.027l-.632 1.897zm.92.134l2.795-.083-.058-1.999-2.795.082.059 2zm2.766-.082c.445 0 .847-.141 1.105-.27l-.895-1.789a.647.647 0 01-.21.059v2zm1.105-.27c.122-.062.34-.181.518-.404.207-.258.281-.55.281-.82h-2a.734.734 0 01.157-.43c.096-.118.19-.156.15-.135l.894 1.789zm.799-1.223v-.329h-2v.329h2zm-.293-1.036c-.03-.03.03.02.078.14a.73.73 0 01.046.184c.006.045.005.082.005.054h-2c0 .05-.006.26.092.505.09.224.23.397.365.531l1.414-1.414z" fill="#fff" mask="url(#path-1-inside-1_2231_21997)"/></g></svg>