<svg width="22" height="12" fill="none" xmlns="http://www.w3.org/2000/svg"><mask id="path-1-inside-1_2231_21998" fill="#fff"><path d="M21.138 10.767c0-.082-.083-.082-.083-.164-.328-.658-1.068-1.48-2.054-2.384-.494-.41-.74-.74-.905-.904-.246-.329-.246-.575-.164-.904.082-.247.411-.658.987-1.397.328-.411.493-.658.74-.904 1.232-1.644 1.807-2.713 1.643-3.206L21.22.822c-.082-.082-.165-.164-.329-.164-.164-.083-.41-.083-.657 0h-3.699l-.082.082c-.082.082-.082.082-.082.164-.33.904-.74 1.644-1.151 2.466-.247.41-.493.822-.74 1.15-.247.33-.41.576-.575.74-.165.165-.329.247-.411.411-.082.082-.247.165-.247.082-.082 0-.164 0-.164-.082l-.247-.246c-.082-.083-.082-.247-.164-.411V.904c0-.082-.082-.246-.082-.329L12.343.33c-.082-.082-.246-.082-.329-.165A7.372 7.372 0 0010.534 0C9.22 0 8.317.082 7.988.247c-.164.082-.329.164-.411.328-.164.165-.164.247-.082.247.41.082.74.246.904.493l.082.164c.082.083.082.247.164.494.083.246.083.493.083.822V4.11c0 .41-.083.657-.083.904 0 .246-.082.41-.164.493-.082.164-.082.246-.164.246 0 0 0 .083-.082.083-.083 0-.165.082-.33.082-.081 0-.246-.082-.328-.165a.99.99 0 01-.411-.41c-.164-.165-.329-.412-.493-.74-.164-.329-.411-.658-.575-1.151l-.165-.329a11.558 11.558 0 01-.41-.904c-.165-.41-.33-.74-.494-1.15a1.135 1.135 0 00-.247-.33H4.7s-.083-.08-.165-.08S4.37.575 4.288.575H1.33C1.001.575.836.658.754.74L.672.822v.164c0 .082 0 .165.082.33.411.985.904 1.972 1.397 2.958.493.904.987 1.726 1.315 2.301.411.576.74 1.151 1.151 1.644.411.493.658.822.74.986l.329.33.246.246c.165.164.411.41.74.657.329.247.74.493 1.15.74.412.247.905.411 1.398.575.575.165 1.068.247 1.561.165h1.233a.746.746 0 00.576-.247l.082-.082c0-.082.082-.082.082-.164v-.33c0-.328 0-.574.082-.821s.082-.411.165-.575c.082-.165.164-.247.246-.33l.165-.164h.082c.164-.082.41 0 .575.165.247.164.493.41.658.657.164.247.41.494.74.822.328.33.575.576.74.658l.246.164c.164.082.329.165.575.247.247.082.411.082.575.082l2.795-.082c.247 0 .493-.082.657-.165.165-.082.247-.164.247-.328v-.33c-.164-.164-.164-.246-.164-.328z"/></mask><path d="M21.055 10.603h1v-.236l-.105-.212-.895.448zm-2.054-2.384l.675-.737-.017-.016-.018-.015-.64.768zm-.905-.904l-.8.6.043.057.05.05.707-.707zm-.164-.904l-.948-.316-.013.036-.009.037.97.243zm.987-1.397l-.782-.625-.008.01.79.615zm.74-.904l.706.707.05-.05.043-.057-.8-.6zM21.301.904l.949-.316-.075-.224-.167-.167-.707.707zM21.22.822l.707-.707-.707.707zm-.33-.164l-.447.894.211.106h.236v-1zm-.657 0v1h.162l.154-.052-.317-.948zm-3.7 0v-1h-.413l-.293.292.707.708zm-.081.082l-.707-.707.707.707zm-.082.164l.94.342.06-.166V.904h-1zM15.22 3.37l.857.514.02-.033.017-.034-.894-.447zm-1.726 2.3l.707.707.115-.114.072-.146-.894-.447zm-.247.082h1v-1h-1v1zm-.164-.082h1v-.414l-.293-.293-.707.707zm-.411-.657h-1v.236l.105.21.895-.446zM12.59.575h1V.161l-.293-.293-.707.707zm-.576-.41l.708-.708-.215-.214-.296-.06-.197.981zm-4.438.41l.707.707.115-.114.072-.145-.894-.448zm-.082.247l.196-.98-.097-.02h-.1v1zm.904.493l.894-.447-.027-.056L9.23.76l-.832.555zm.082.164l-.894.448.072.145.115.115.707-.708zm0 4.028L7.773 4.8l-.115.114-.072.146.894.447zm-.164.246v-1h-1v1h1zm-.74 0l.707-.707-.115-.114-.145-.073-.447.894zm-.411-.41l.894-.448-.072-.145-.115-.115-.707.707zM6.097 3.451l.948-.316-.022-.068-.032-.063-.894.447zm-.165-.329l.895-.447-.895.447zM5.028 1.07l.929-.372-.017-.04-.018-.037-.894.448zM4.781.74L5.49.034 5.196-.26H4.78v1zM4.7.74l-.707.708.293.293H4.7v-1zM.672.823L-.035.115l-.293.293v.414h1zm.082.493L1.677.93 1.664.9 1.649.868l-.895.447zm1.397 2.959l-.894.447.008.016.008.016.878-.479zm1.315 2.301l-.868.496.025.044.03.042.813-.582zm1.89 2.63l-.894.448.073.145.115.115.707-.708zm.33.33l-.708.706.708-.707zm.246.246l.707-.707-.707.707zm3.288 1.972l-.316.95.02.006.021.006.275-.962zm1.561.165v-1H10.7l-.082.013.164.987zm1.809-.247l.707.707-.707-.707zm.082-.082l.707.707.293-.293v-.414h-1zm.74-2.384v-1h-.415l-.292.293.707.707zm.082 0v1h.236l.211-.105-.447-.895zm.575.165l-.707.707.07.07.082.055.555-.832zm2.137 2.137l.555-.832-.052-.035-.056-.028-.447.895zm.247.164l-.555.832.052.035.056.028.447-.895zm1.15.329v1h.03l-.03-1zm2.795-.082v-1h-.029l.029 1zm.904-.822h1v-.414l-.293-.293-.707.707zm.836-.329a1.102 1.102 0 00-.277-.728c-.029-.033-.056-.06-.057-.061-.01-.009.008.008.027.03a.888.888 0 01.19.352.898.898 0 01.034.243h-2a1.102 1.102 0 00.277.728.82.82 0 00.058.061.883.883 0 01-.218-.383.898.898 0 01-.034-.242h2zm-.188-.611c-.418-.837-1.281-1.765-2.274-2.674l-1.351 1.474c.98.9 1.597 1.615 1.836 2.094l1.789-.895zM19.64 7.45c-.46-.383-.552-.559-.836-.843l-1.415 1.414c.045.044.445.527.971.965l1.28-1.536zm-.744-.736c-.025-.035-.03-.048-.028-.043l.006.019a.22.22 0 01.007.03c.003.023.001.034.002.027a.726.726 0 01.02-.095l-1.941-.485a2.148 2.148 0 00-.06.836c.049.348.195.646.395.911l1.6-1.2zm-.015.012c-.015.043-.003-.006.168-.242.152-.209.364-.478.659-.857L18.129 4.4c-.28.36-.52.666-.697.91-.157.215-.352.495-.448.785l1.897.632zm.818-1.089c.39-.487.471-.626.666-.821l-1.414-1.415c-.298.299-.546.653-.813.987l1.561 1.25zm.76-.928c.626-.837 1.117-1.566 1.433-2.174a4.37 4.37 0 00.364-.906c.073-.283.122-.66-.005-1.042l-1.898.632c-.045-.136-.006-.194-.034-.087a2.45 2.45 0 01-.202.482c-.24.46-.653 1.087-1.259 1.895l1.6 1.2zm1.55-4.513l-.082-.082-1.414 1.414.082.082L22.009.197zm-.082-.082c-.093-.093-.432-.457-1.036-.457v2a.653.653 0 01-.396-.146l.018.017L21.927.115zm-.589-.352c-.485-.243-1.028-.185-1.42-.054l.632 1.897c.031-.01.048-.01.043-.01-.003 0-.017 0-.04-.005a.447.447 0 01-.11-.039l.895-1.789zm-1.105-.105H17.11v2h3.123v-2zm-3.123 0h-.247v2h.247v-2zm-.246 0H16.7v2h.164v-2zm-.165 0h-.082v2h.082v-2zm-.082 0h-.082v2h.082v-2zm-.79.292l-.081.083 1.414 1.414.082-.082L15.828-.05zm-.081.083c-.013.013-.05.05-.084.087a1.09 1.09 0 00-.285.636c-.008.073-.007.146-.007.148h2c0-.039.002.003-.003.05a.908.908 0 01-.092.315.84.84 0 01-.115.178L15.746.033zm-.315.53c-.303.833-.672 1.493-1.106 2.36l1.79.894c.388-.777.84-1.596 1.195-2.571L15.43.562zm-1.069 2.292c-.254.424-.473.786-.682 1.066l1.6 1.2c.284-.379.558-.838.797-1.237l-1.715-1.029zM13.68 3.92c-.303.404-.385.535-.482.632l1.414 1.414c.231-.231.478-.593.668-.846l-1.6-1.2zm-.482.632c-.048.048-.046.039-.18.154-.1.085-.286.252-.419.517l1.79.894c-.05.1-.113.144-.07.107l.04-.034.066-.054c.051-.043.117-.1.187-.17l-1.414-1.414zm-.411.411a.49.49 0 01.181-.118c.012-.005.2-.087.458-.048a.97.97 0 01.821.955h-2a1.03 1.03 0 00.875 1.022c.293.045.526-.047.59-.073.183-.073.357-.192.489-.324l-1.414-1.414zm.46-.21h.006a.793.793 0 01.197.04.926.926 0 01.632.877h-2a1.074 1.074 0 001.038 1.08c.059.004.114.003.127.003v-2zm.543.21l-.123-.123-.124-.123-1.414 1.414.123.123.124.123 1.414-1.414zm-.247-.246a.764.764 0 01.162.232.248.248 0 01.014.038l-.003-.013-.007-.023-.01-.032a1.857 1.857 0 00-.134-.353l-1.788.894c-.01-.021-.016-.049.016.064.01.04.036.128.077.223.044.099.12.245.26.384l1.413-1.414zm.129.296v-.41h-2v.412h2zm0-.411v-.493h-2v.494h2zm0-.493v-.493h-2v.494h2zm0-.494v-.904h-2v.905h2zm0-.904v-.738h-2v.74h2zm0-.74v-.573h-2v.575h2zm0-.575V.904h-2v.494h2zm0-.493a1.191 1.191 0 00-.048-.337 2.28 2.28 0 00-.045-.143l-.012-.037c.001.004.006.02.01.046a.803.803 0 01.013.142h-2a1.191 1.191 0 00.048.338c.016.06.036.118.044.143l.012.037a.803.803 0 01-.022-.189h2zm-.375-1.036a796.456 796.456 0 00-.247-.246l-1.414 1.414.123.123.124.123 1.414-1.414zm-.247-.246a1.246 1.246 0 00-.368-.252c-.084-.039-.166-.065-.187-.072-.04-.014-.02-.008.008.005a.756.756 0 01.219.154L11.306.871c.137.137.28.212.368.253.085.038.167.064.188.071.04.014.02.008-.008-.005a.757.757 0 01-.219-.154L13.05-.378zm-.84-.438A8.362 8.362 0 0010.535-1v2c.48 0 .899.068 1.283.145l.393-1.961zM10.535-1c-.674 0-1.264.02-1.739.066-.425.04-.906.111-1.256.286l.894 1.789c-.02.01.115-.042.552-.084C9.374 1.02 9.894 1 10.535 1v-2zM7.54-.648c-.1.05-.602.263-.858.776l1.788.895a.527.527 0 01-.138.17c-.007.006-.005.004.014-.007l.088-.045L7.54-.648zm-.671.516a1.854 1.854 0 00-.203.237c-.056.08-.146.222-.194.413-.048.192-.084.595.224.947.283.323.647.357.798.357v-2a.94.94 0 01.707.326c.29.331.25.704.212.855a.764.764 0 01-.115.258c-.02.028-.03.036-.015.021L6.87-.132zm.429 1.935c.134.026.222.06.27.086.048.026.03.028-.002-.02L9.23.76C8.848.188 8.202-.056 7.69-.159l-.392 1.961zm.205-.04l.083.164 1.789-.895-.083-.164-1.789.894zm.27.424a.772.772 0 01-.183-.29c-.002-.004 0-.002.002.01a4.357 4.357 0 01.034.139c.016.067.039.15.07.243l1.897-.633c-.025-.074-.028-.102-.06-.234a1.751 1.751 0 00-.081-.25 1.23 1.23 0 00-.265-.4L7.773 2.187zm-.077.102c.021.065.03.141.03.506h2c0-.294.01-.71-.133-1.139l-1.897.633zm.03.506V4.11h2V2.795h-2zm0 1.315c0 .135-.012.245-.03.372-.015.105-.052.318-.052.532h2c0-.034.005-.066.032-.25.023-.16.05-.379.05-.654h-2zm-.082.904c0 .012-.001-.005.013-.043a.491.491 0 01.116-.171l1.414 1.414c.303-.303.457-.74.457-1.2h-2zm-.058.046a2.664 2.664 0 00-.078.17c-.023.057-.014.034-.004.015.01-.02.078-.161.236-.288a.927.927 0 01.576-.204v2a1.073 1.073 0 00.976-.614c.03-.06.06-.135.062-.14a.696.696 0 01.02-.045L7.587 5.06zm.73.693h-1V5.75a.523.523 0 01.002-.063.9.9 0 01.093-.339.928.928 0 01.823-.511v2a1.072 1.072 0 001.08-1.007 1.066 1.066 0 00.002-.06v-.014c0-.001 0-.002-1-.002zm-.082-.917a1.185 1.185 0 00-.477.1l-.028.012c-.005.002.017-.007.052-.015a.537.537 0 01.124-.015v2a1.463 1.463 0 00.566-.113l.046-.018c.008-.004 0 0-.014.004a.817.817 0 01-.27.045v-2zm-.33.082a.818.818 0 01.23.033.372.372 0 01.08.037.486.486 0 01.07.058L6.868 6.461c.14.14.3.238.424.3a1.4 1.4 0 00.612.157v-2zm.12-.059a.16.16 0 01.026.016l-.003-.003-.003-.003s.007.009.015.026l-1.788.895c.179.358.5.679.858.858l.894-1.789zm-.152-.224c-.057-.057-.165-.198-.306-.48l-1.789.895c.188.376.41.728.68 1l1.415-1.415zm-.306-.48c-.092-.183-.242-.434-.308-.552a2.702 2.702 0 01-.213-.467l-1.897.632c.109.328.243.593.362.807.14.252.195.33.267.475l1.79-.894zm-.575-1.15l-.164-.329-1.79.894.165.33 1.789-.895zm-.164-.329a10.64 10.64 0 01-.377-.828l-1.857.743c.18.451.36.81.445.98l1.789-.895zm-.377-.828a15.24 15.24 0 00-.262-.61 15.19 15.19 0 01-.231-.54L4.1 1.44c.09.225.18.427.26.61.084.187.159.355.233.54l1.857-.742zM5.922.62C5.767.31 5.592.136 5.49.033L4.074 1.447l.05.05c0 .001 0 0 0 0v.001l.01.018L5.922.62zm-1.14-.88h-.083v2h.082v-2zm-.083 1l.707-.708h-.001L5.403.03a.696.696 0 00-.067-.062 1.392 1.392 0 00-.133-.101 1.21 1.21 0 00-.668-.21v2a.837.837 0 01-.442-.126.606.606 0 01-.098-.081l-.001-.002h-.001L4.699.74zM4.535-.342a.827.827 0 01.332.068l-.008-.004-.054-.026a1.174 1.174 0 00-.517-.12v2a.827.827 0 01-.332-.07c-.003 0-.004-.001.008.005l.054.026a1.174 1.174 0 00.517.12v-2zm-.247-.083H1.33v2h2.96v-2zm-2.959 0c-.482 0-.946.122-1.282.458l1.414 1.414a.524.524 0 01-.196.128c-.032.011-.02 0 .064 0v-2zM.047.033l-.082.082 1.414 1.414.082-.082L.047.033zm.625.789h-1v.165h2V.821h-1zm-1 .164c0 .043-.002.172.03.33.031.157.086.304.158.446L1.648.868c-.01-.022.004.001.015.056.01.055.009.102.009.062h-2zm.159.714c.427 1.023.936 2.04 1.426 3.02l1.789-.894C2.55 2.835 2.073 1.879 1.677.93l-1.846.77zm1.442 3.053c.499.914 1.011 1.77 1.325 2.318l1.737-.992c-.344-.602-.818-1.39-1.306-2.284l-1.756.958zm1.38 2.404c.193.27.36.53.557.826.188.283.398.587.639.876l1.536-1.28a8.23 8.23 0 01-.511-.706c-.173-.26-.376-.574-.594-.879L2.653 7.157zm1.196 1.702c.2.24.352.431.461.577.12.16.155.222.152.217l1.79-.895c-.145-.289-.477-.711-.867-1.179L3.85 8.859zm.8 1.054c.04.039-.008-.01.03.03.013.012.017.015.029.028l.026.026.006.006c.009.009-.005-.005.004.003l.003.003.012.013.023.023.006.006.001.001.002.002h.001v.002h.001l.003.003.003.003.001.001.002.002h.001v.002h.001l.021.021a.785.785 0 00.01.01l.005.005.005.005.019.019.004.004a.958.958 0 01.005.005l.009.009.034.033c.028.03.035.036.062.063l1.415-1.414-.063-.063c-.03-.03.013.014-.017-.016l-.017-.018-.009-.009-.005-.004c-.007-.007.003.002-.004-.005l-.019-.018-.086-.086-.11-.11L4.65 9.913zm.33.328l.246.247L6.64 9.074l-.246-.247-1.415 1.414zm.246.247c.167.167.457.458.847.75l1.2-1.6c-.267-.2-.47-.402-.633-.564l-1.414 1.414zm.847.75c.378.284.838.559 1.236.798l1.03-1.715c-.424-.254-.787-.473-1.066-.683l-1.2 1.6zm1.236.798c.523.313 1.127.51 1.596.666l.632-1.897c-.517-.173-.9-.305-1.199-.484l-1.029 1.715zm1.637.679c.624.178 1.288.308 2 .19l-.328-1.974c-.274.046-.596.011-1.122-.14l-.55 1.924zm1.836.203h1.233v-2h-1.232v2zm1.233 0c.24 0 .485-.041.725-.148.236-.105.417-.25.558-.392l-1.414-1.414c-.024.023-.007 0 .044-.022a.322.322 0 01.067-.021c.018-.004.026-.003.02-.003v2zm1.283-.54l.082-.082-1.414-1.414-.082.082 1.414 1.414zm.375-.789a.902.902 0 01-.224.595l-.028.03c.002-.002.029-.029.058-.061a1.124 1.124 0 00.236-.431 1.12 1.12 0 00.04-.297h-2a.898.898 0 01.224-.596c.02-.021.037-.038.028-.03l-.058.062a1.116 1.116 0 00-.236.431 1.12 1.12 0 00-.04.297h2zm.082-.164v-.329h-2v.329h2zm0-.33c0-.363.01-.44.031-.505l-1.897-.632c-.143.428-.134.845-.134 1.138h2zm.031-.505c.061-.183.093-.344.11-.418.019-.085.018-.063 0-.026l-1.789-.895c-.1.201-.142.388-.164.488-.024.11-.033.155-.054.219l1.897.632zm.11-.444l.01-.018c.002-.002.005-.007.05-.051L12.54 8.663c-.103.103-.278.277-.434.588l1.79.895zm.06-.069l.112-.113.038-.037.01-.01a.167.167 0 00.003-.003v-.001l-.706-.708-.707-.707-.001.001-.003.003-.01.01-.038.038-.113.113 1.414 1.414zm-.543.129h.082v-2h-.082v2zm.529-.106a.616.616 0 01-.447.053.3.3 0 01-.132-.076l1.414-1.414a1.701 1.701 0 00-.707-.426 1.39 1.39 0 00-1.022.074l.894 1.789zm-.427.102c.137.091.29.243.38.38l1.665-1.11a3.499 3.499 0 00-.935-.934l-1.11 1.664zm.38.38c.232.348.562.671.865.974l1.415-1.414c-.355-.354-.518-.524-.615-.67l-1.664 1.11zm.865.974c.16.16.32.32.463.452.125.114.317.284.537.393l.894-1.789c.04.02.052.033.027.013a1.835 1.835 0 01-.106-.092c-.104-.095-.23-.221-.4-.39l-1.415 1.413zm.892.783l.247.164 1.11-1.664-.247-.164-1.11 1.664zm.355.227c.17.085.388.194.706.3l.632-1.897a3.035 3.035 0 01-.444-.192l-.894 1.789zm.706.3c.403.135.698.134.891.134v-2c-.086 0-.116 0-.146-.004a.522.522 0 01-.113-.027l-.632 1.898zm.92.134l2.795-.083-.058-1.999-2.795.082.059 2zm2.766-.082c.445 0 .847-.141 1.105-.27l-.895-1.789a.647.647 0 01-.21.059v2zm1.105-.27a1.54 1.54 0 00.518-.403c.207-.258.281-.552.281-.82h-2a.734.734 0 01.157-.43c.096-.12.19-.157.15-.136l.894 1.789zm.799-1.223v-.329h-2v.329h2zm-.293-1.036c-.03-.03.03.02.078.14a.73.73 0 01.046.184c.006.045.005.082.005.054h-2c0 .05-.006.26.092.505.09.224.23.396.365.531l1.414-1.414z" fill="#fff" mask="url(#path-1-inside-1_2231_21998)"/></svg>