<svg width="42" height="42" fill="#ccc" xmlns="http://www.w3.org/2000/svg"><g opacity=".9"><path fill="#fff" d="M0 0h42v42H0z"/><mask id="path-1-inside-1_2231_21997" fill="#7294C7"><path d="M31.138 25.767c0-.082-.083-.082-.083-.164-.328-.658-1.068-1.48-2.054-2.384-.494-.41-.74-.74-.905-.904-.246-.329-.246-.575-.164-.904.082-.247.411-.658.987-1.397.328-.411.493-.658.74-.904 1.232-1.644 1.807-2.713 1.643-3.206l-.082-.082c-.082-.082-.165-.164-.329-.164-.164-.083-.41-.083-.657 0h-3.699l-.082.082c-.082.082-.082.082-.082.164-.33.904-.74 1.644-1.151 2.466-.247.41-.493.822-.74 1.15-.247.33-.41.576-.575.74-.165.165-.329.247-.411.411-.082.082-.247.165-.247.082-.082 0-.164 0-.164-.082l-.247-.246c-.082-.082-.082-.247-.164-.411v-4.11c0-.082-.082-.246-.082-.329l-.247-.246c-.082-.082-.247-.082-.329-.165a7.37 7.37 0 00-1.48-.164c-1.314 0-2.218.082-2.547.247-.164.082-.329.164-.411.328-.164.165-.164.247-.082.247.41.082.74.247.904.493l.082.165c.082.082.082.246.165.493.082.246.082.493.082.822v1.315c0 .41-.082.657-.082.904 0 .246-.083.41-.165.493-.082.164-.082.246-.164.246 0 0 0 .083-.082.083-.083 0-.165.082-.33.082-.081 0-.246-.082-.328-.165a.99.99 0 01-.411-.41c-.164-.165-.329-.412-.493-.74-.165-.329-.411-.658-.576-1.15l-.164-.33a11.64 11.64 0 01-.41-.904c-.165-.41-.33-.74-.494-1.15-.082-.165-.164-.247-.247-.33H14.7s-.082-.082-.164-.082-.165-.082-.247-.082H11.33c-.328 0-.493.083-.575.165l-.082.082v.164c0 .082 0 .165.082.33.411.985.904 1.972 1.397 2.958.494.904.987 1.726 1.315 2.301.411.576.74 1.151 1.151 1.644.411.493.658.822.74.986l.329.33.246.246c.164.164.411.41.74.657.329.247.74.494 1.15.74.412.247.905.411 1.398.575.575.165 1.068.247 1.562.165h1.232a.746.746 0 00.576-.247l.082-.082c0-.082.082-.082.082-.164v-.33c0-.328 0-.574.082-.821.083-.247.083-.411.165-.575.082-.165.164-.247.246-.33l.165-.163h.082c.164-.083.41 0 .575.164a2.5 2.5 0 01.658.657c.164.247.41.494.74.822.328.33.575.576.74.658l.246.164c.164.082.329.165.575.247.247.082.411.082.575.082l2.795-.082c.247 0 .493-.082.657-.165.165-.082.247-.164.247-.328v-.33c-.164-.163-.164-.246-.164-.328z"/></mask></g></svg>