<svg width="270" height="70" fill="none" xmlns="http://www.w3.org/2000/svg"><path fill-rule="evenodd" clip-rule="evenodd" d="M14.55 28.492l.488.979c.193-.023.198-.032 1.007-1.818.199-.44.478-1.048.62-1.354.443-.944.793-1.73.816-1.83.012-.052-.035-.104-.106-.116a.403.403 0 01-.166-.059c-.032-.032.094-.382.329-.91.259-.58.488-1.144.488-1.2 0-.036.04-.1.09-.141.07-.058.157.016.378.32l1.392 1.924c2.632 3.638 3.095 4.268 3.14 4.267.026-.001.307-.384.626-.85.319-.467.852-1.24 1.186-1.717l1.842-2.637c.253-.363.606-.873.784-1.134.178-.26.348-.448.377-.416.029.032.2.48.381.995.42 1.194.487 1.368.429 1.44-.015.019-.038.03-.064.05-.066.048-.12.109-.12.136 0 .027.393.847.871 1.821.479.975.87 1.8.87 1.834 0 .034-.094.062-.209.062-.114 0-.208.027-.208.06s.627 1.103 1.394 2.377c1.082 1.797 1.365 2.215 1.314 2.587-.023.16-.107.313-.216.563-.668 1.536-1.67 2.671-2.874 3.258-.863.42-1.446.548-2.345.511-.645-.026-.765-.053-1.166-.258-1.179-.603-1.99-1.884-2.515-3.973-.079-.314-.087-.322-.273-.257l-.19.066.192.743c.238.916.33 1.172.645 1.794.433.859 1.087 1.575 1.84 2.016.728.426 1.962.55 2.975.296 1.318-.329 2.51-1.11 3.271-2.14.332-.45.88-1.43.974-1.744a4.08 4.08 0 01.144-.381c.314-.713.644-2.573.702-3.956.033-.789.012-1.161-.109-1.978-.05-.334-.083-.56-.123-.787-.09-.514-.215-1.021-.64-2.752-.413-1.681-.482-2.022-.659-3.212-.073-.493-.074-.722-.003-1.197.172-1.164.25-3.315.17-4.717-.078-1.394-.08-1.41-.283-2.502-.263-1.412-.667-2.704-1.214-3.883a83.489 83.489 0 01-.32-.694 4.76 4.76 0 00-.236-.416 13.41 13.41 0 01-.289-.486 13.988 13.988 0 00-.489-.752 9.42 9.42 0 01-.374-.566c0-.114 1.881.58 2.82 1.04 1.555.762 2.678 1.572 4.144 2.99l.593.574.471-.42c.26-.23.483-.408.496-.394.288.298 1.988 4.659 1.988 5.098 0 .165.082.118.684-.394.32-.27.59-.481.604-.468.013.013.086.273.162.579.27 1.083.326 1.73.326 3.834 0 1.117.004 2.03.008 2.03.04 0 .881-.358 1.223-.52.103-.05.2-.077.216-.06.033.032.009.947-.057 2.107-.045.806-.318 2.563-.6 3.868-.084.391-.139.726-.121.743.017.018.353-.032.746-.111.394-.08.729-.13.746-.113.049.049-.362 1.126-.788 2.067-.383.844-.973 1.972-1.327 2.533l-.348.555c-.095.153-.23.362-.301.466-.07.103-.129.212-.129.243 0 .03.395.045.877.033l.877-.021-.129.217c-.55.932-2.65 3.085-4.31 4.416-.361.289-.656.545-.656.57 0 .024.321.12.714.21.664.155.934.211.943.296.007.061-.125.138-.343.28-1.678 1.085-3.669 2.123-5.194 2.708l-.992.38.713.476.74.495c.063.044-.166.237-.502.425-.655.367-1.654.638-4.78 1.297-2.684.565-3.823.894-4.857 1.4l-.504.248v2.035c0 1.14.027 2.052.063 2.074.034.021.162-.172.283-.43.594-1.267 1.628-2.517 2.995-3.621 1.263-1.02 1.35-1.057 4.038-1.745 1.1-.281 1.498-.383 1.893-.495.244-.07.486-.144.892-.267.705-.213 1.987-.779 2.252-.993.17-.138.124-.196-.454-.572-.27-.175-.463-.343-.43-.372.032-.029.45-.255.929-.501 1.914-.987 3.19-1.87 4.438-3.073.429-.414.63-.593.595-.691-.03-.086-.238-.11-.63-.176-.278-.047-.505-.102-.505-.123 0-.02.26-.322.578-.67a25.555 25.555 0 003.6-5.09c0-.017-.314-.021-.697-.008-.383.013-.696.003-.696-.023s.202-.45.449-.942c.882-1.758 1.504-3.587 1.743-5.128l.045-.287-.405.102c-.844.21-1.008.242-1.048.201-.023-.023-.006-.284.039-.58.255-1.689.412-5.615.245-6.134l-.059-.184-.582.344c-.32.189-.591.334-.602.323-.011-.012-.053-.365-.093-.784-.11-1.143-.285-2.626-.322-2.725a9.863 9.863 0 01-.142-.728 10.38 10.38 0 00-.215-.989c-.215-.704-.461-1.353-.513-1.353-.03 0-.294.191-.588.425-.294.233-.543.413-.553.399a6.671 6.671 0 01-.175-.408 28.19 28.19 0 00-.217-.52 358.64 358.64 0 01-.423-.972 18.957 18.957 0 00-1.05-2.084c-.224-.384-.712-1.072-.76-1.073-.022 0-.27.266-.55.591-.447.52-.523.58-.621.498-1.06-.886-1.831-1.432-2.774-1.964-1.993-1.126-4.208-1.832-7.05-2.25-1.1-.16-1.253-.167-1.25-.05.002.047.292.29.644.537a16.77 16.77 0 012.289 1.985c2.019 2.074 3.3 4.604 3.758 7.419.122.75.115 3.415-.011 4.233-.177 1.147-.097 3.133.173 4.302.392 1.696.478 2.039.56 2.234.141.339.354 1.152.531 2.035.14.698.16.993.156 2.36-.003 1.123-.034 1.687-.109 2.01-.103.445-.105.448-.212.277a73.954 73.954 0 01-1.143-1.984l-.233-.425.552-.088-.207-.35a3.257 3.257 0 01-.207-.38c0-.018-.214-.415-.477-.883-.262-.467-.61-1.1-.774-1.405a9.196 9.196 0 00-.363-.637c-.047-.058-.002-.116.147-.193.118-.06.214-.125.214-.144 0-.019-.438-.925-.974-2.015a82.036 82.036 0 01-.975-2.016c0-.058.907-1.338.979-1.382.096-.059.075-.407-.064-1.061-.091-.431-.141-.555-.196-.486-.04.05-.187.255-.326.455l-.58.832c-1.378 1.975-3.99 6.021-4.772 7.392-.125.22-.247.4-.27.4-.024 0-.12-.117-.216-.26a128.01 128.01 0 01-1.207-1.875 465.56 465.56 0 00-2.467-3.868 433.46 433.46 0 01-1.294-2.03l-.537-.85-.3.663c-.164.364-.316.716-.337.782-.026.082.129.321.482.744.286.342.521.658.522.701.005.26-1.035 2.455-1.732 3.657-.196.338-.338.642-.316.677.021.035.149.063.284.063.161 0 .237.03.222.087-.013.048-.346.688-.742 1.424-.654 1.216-.842 1.133-.842 1.133zm8.627-18.897c0-.094.036-.35.08-.567.046-.229.112-.385.156-.37.042.014.108.257.147.54l.07.515.4-.008c.22-.004.399.011.397.035-.002.023-.241.22-.531.437l-.528.395-.508-.392c-.28-.216-.493-.417-.474-.447.018-.03.204-.035.413-.01.368.043.378.04.378-.128zm-3.38 2.332c-.093-.61.333-1.304.978-1.597.732-.332 1.557-.145 2.28.518l.192.175-.001 2.646-.852.005c-.47.003-.974.041-1.123.084l-.27.078-.366-.373c-.414-.423-.77-1.074-.839-1.536zm3.984-1.083c.224-.235.477-.386.928-.553.421-.156.729-.154 1.18.01.436.16.785.47.992.882.307.613-.01 1.613-.738 2.333-.263.26-.375.327-.488.293-.342-.103-1.293-.18-1.706-.138l-.446.046.081-2.667.197-.206zm-2.657 3.148c.025-.025.239-.066.475-.092.523-.056 3.64-.016 3.858.05.14.042.157.092.157.458v.41l-.853-.054a19.666 19.666 0 00-2.843 0l-.877.055.018-.39c.01-.215.04-.411.065-.437zm-.592 3.043c.682-.682 1.297-1.042 2.053-1.204.32-.068.462-.101.603-.1.134 0 .268.03.556.091.626.131 1.16.386 1.66.793.492.399.633.549 1.324 1.409.023.028.415-.383.871-.913l.83-.966.155.67c.085.37.156.707.158.751.002.045-.191.33-.43.635a91.87 91.87 0 00-1.988 2.685c-.22.306-.6.868-.843 1.25l-.554.867c-.557.87-1.691 3.039-1.787 3.42-.069.273-.146.235-.352-.176-.265-.526-2.598-4.599-3.154-5.504a27.38 27.38 0 00-1.62-2.371c-.345-.444-.385-.557-.27-.766.122-.22.49-1.114.49-1.19 0-.13.132-.082.216.08.152.292 1.059 1.649 1.1 1.649.023 0 .12-.117.216-.26.096-.142.44-.525.766-.85zm5.037.418a3.645 3.645 0 00-1.385-.962c-.8-.312-1.703-.214-2.53.277-.74.438-1.964 1.979-1.769 2.224.224.28 2.761 5.327 3.02 6.006.08.211.177.197.235-.035.142-.566 2.19-4.462 3.007-5.721.166-.256.302-.486.302-.512 0-.125-.545-.917-.88-1.277z" fill="#2B323C"/><path d="M23.64.922c-.877 1.068-2.348 2.251-3.874 3.116-.953.54-1.22.668-3.376 1.621-.804.355-1.978.905-2.607 1.222-.63.317-1.179.577-1.219.577-.05 0-.066-.53-.053-1.637.02-1.63-.015-1.862-.197-1.295-.088.273-.57 1.247-.765 1.544-.552.84-.834 1.189-1.573 1.943a30.815 30.815 0 00-2.41 2.74c-.3.383-.584.743-.63.8l-.463.608c-.208.276-.404.502-.435.502-.03 0-.056-.116-.056-.256 0-.29-.226-1.15-.426-1.618-.15-.353-.473-.978-.547-1.062-.028-.03-.069.188-.093.486-.11 1.401-.468 2.795-1.092 4.254-.631 1.477-1.242 3.582-1.46 5.031-.046.306-.115.727-.153.937-.039.21-.087 1.077-.108 1.926-.021.85-.057 1.543-.08 1.541-.024-.001-.161-.15-.305-.33a17.34 17.34 0 00-.472-.563 88.63 88.63 0 01-.678-.781c-.256-.3-.49-.544-.52-.544-.086 0-.062.238.117 1.131.093.466.22 1.113.281 1.437.174.917.523 2.5.628 2.845.57 1.885.93 2.767 1.726 4.231.566 1.042 2.216 3.485 2.626 3.89.127.125.425.569.4.595-.018.017-.555-.073-1.195-.2s-1.178-.207-1.196-.178c-.017.029.155.178.383.333.488.33.966.726 2.491 2.066 1.182 1.038 2.4 2.013 2.721 2.178.104.054.23.137.281.184.22.208 1.733 1.007 2.489 1.316.45.184 1.2.436 1.445.487.144.03.261.085.262.123 0 .076-.108.107-1.168.33-.39.081-.695.172-.677.2.036.06 1.304.457 2.187.686a124 124 0 011.044.278c.249.069.562.146.696.172 1.183.233 3.532 1.149 4.547 1.773.968.595 1.86 1.518 2.275 2.356.123.248.25.503.284.567.032.064.097.322.143.573.047.25.11.456.142.456.032 0 .058-.918.058-2.04v-2.04l-.19-.047a3.624 3.624 0 01-.482-.18c-.163-.074-.331-.134-.375-.134-.045 0-.18-.044-.3-.098-.293-.132-1.56-.527-1.687-.527a.55.55 0 01-.222-.068c-.12-.068-.762-.237-1.889-.496-.322-.074-.61-.15-.642-.17-.031-.02-.3-.08-.598-.137a49.853 49.853 0 01-.994-.199 95.046 95.046 0 00-.83-.173c-.607-.123-.597-.14.203-.346l.975-.252c.21-.055.505-.143.655-.196.242-.086.258-.105.14-.167a1.892 1.892 0 00-.447-.118c-.892-.136-2.899-.595-3.072-.702a4.481 4.481 0 00-.497-.165c-.982-.286-2.579-1.034-3.532-1.655C8.328 39 6.98 37.79 7.165 37.727c.067-.022 1.675.167 2.002.236.295.062.163-.147-.313-.494-1.013-.739-2.499-2.089-3.36-3.053l-.556-.624c-.63-.708-1.551-2.092-2.032-3.051-.416-.831-.858-2.001-1.034-2.739-.176-.73-.358-1.886-.306-1.938.023-.023.581.512 1.24 1.19.66.677 1.237 1.231 1.283 1.231.097 0 .112-.113.021-.168-.034-.021-.083-.125-.11-.23a2.846 2.846 0 00-.142-.4c-.125-.274-.403-1.12-.582-1.77-.123-.443-.18-.698-.332-1.457-.24-1.198-.303-3.728-.128-5.066.138-1.053.484-2.51.732-3.088.033-.076.145-.358.248-.625.28-.721.787-1.77.856-1.77.155 0 .56 1.297.564 1.805.005.508.164.74.251.364.384-1.654 1.325-3.645 2.39-5.06.41-.543 1.88-2.044 2.303-2.35.157-.114.397-.292.534-.397.407-.311.452-.273.404.347-.037.47-.183 1.336-.287 1.7-.068.237.082.117.252-.202.35-.658 1.126-1.4 2.172-2.074.741-.478 2.474-1.463 3.398-1.93 1.608-.813 3.77-1.933 4.589-2.377.169-.091.318-.155.331-.142.078.077-.594 1.314-1.287 2.37-.76 1.16-1.435 1.946-2.974 3.47-1.902 1.884-2.675 2.906-4.056 5.359l-.282.5.674-.338c1.365-.684 2.316-1.123 2.381-1.101.19.063-.438.895-1.67 2.208-1.666 1.778-1.988 2.222-2.41 3.322-.242.634-.58 1.851-.79 2.854a14.77 14.77 0 01-.166.73c-.037.118-.396 2.51-.396 2.635 0 .025.54-.457 1.2-1.07.778-.72 1.21-1.076 1.224-1.009.026.119-.167 1.037-.262 1.248-.035.076-.163.45-.286.832-.122.382-.263.82-.314.972-.38 1.153-.364 3.017.039 4.372.24.811.381 1.238.536 1.63.252.642.996 2.112 1.316 2.603l.271.417.049-.833c.06-1.02.175-1.937.282-2.238.09-.254.23-.295.296-.087.075.235.828 1.536 1.185 2.047.422.604 1.469 1.645 2.06 2.048.244.167.583.398.753.512.412.278 2.525 1.5 2.594 1.5.03 0-.008-.165-.084-.367-.492-1.311-.548-3.122-.128-4.163.072-.178.085-.183.162-.07.047.068.123.28.17.471.13.537.609 1.684.92 2.207.545.918 1.381 1.67 2.236 2.012.606.242.684.25.752.072.051-.135-.005-.184-.548-.486-1.1-.61-1.666-1.327-2.24-2.833a47.066 47.066 0 00-.255-.66c-.121-.3-.331-1.038-.683-2.394-.174-.672-.409-1.321-.571-1.579-.215-.34-.409-.347-.471-.015-.058.305-.296 1.036-.74 2.271-.535 1.487-.663 2.229-.523 3.018.029.163.032.296.007.296-.11 0-.878-.398-1.302-.675-.828-.54-1.773-1.567-2.286-2.483-.201-.36-.421-1.038-.772-2.383-.351-1.343-.346-1.29-.126-1.316l-.489-.98c-.07-.173-.444-1.06-.576-1.169-.094-.078-.11.076-.146 1.388-.028 1.033-.082 1.702-.18 2.23-.077.415-.155.77-.173.787-.065.066-.46-.44-.665-.852-.35-.702-.45-1.205-.446-2.216a8.194 8.194 0 01.488-2.81c.143-.406 1.118-2.887 1.24-3.158.31-.684 1.08-3.236 1.08-3.579 0-.16-.152-.026-.546.482-.538.694-1.597 1.734-2.17 2.13-.242.17-.469.307-.502.307-.12 0 .197-1.693.44-2.36.522-1.43.857-1.913 2.356-3.4 1.167-1.158 2.062-2.23 2.75-3.296.588-.913.722-1.129.975-1.582l.264-.472-.397.214c-.954.514-3.043 1.538-3.075 1.506-.062-.062.24-.576.664-1.133.544-.714 1.208-1.391 2.013-2.054 2.608-2.145 4.524-4.488 5.437-6.646.121-.286.248-.57.28-.63.08-.145.492-1.518.492-1.638 0-.18-.13-.084-.512.382zm49.556 8.332h9.32c2.253 0 4.327.367 6.222 1.101 1.895.734 3.542 1.784 4.942 3.15 1.4 1.365 2.483 3.012 3.252 4.941.768 1.93 1.152 4.097 1.152 6.504 0 2.321-.384 4.42-1.152 6.298-.769 1.878-1.853 3.483-3.252 4.814-1.4 1.332-3.047 2.356-4.942 3.073-1.895.7-3.969 1.05-6.222 1.05h-9.32c-2.27 0-4.361-.35-6.273-1.05-1.912-.717-3.576-1.733-4.993-3.047-1.4-1.332-2.492-2.928-3.277-4.788-.768-1.878-1.152-3.978-1.152-6.3 0-2.406.384-4.574 1.152-6.503.785-1.928 1.878-3.584 3.277-4.967 1.417-1.382 3.081-2.44 4.993-3.175 1.912-.734 4.003-1.1 6.273-1.1zm0 7.22c-1.365 0-2.594.308-3.687.922-1.092.615-1.954 1.554-2.586 2.817-.632 1.246-.947 2.842-.947 4.788 0 1.348.188 2.526.563 3.533.376 1.008.896 1.835 1.562 2.484a6.538 6.538 0 002.304 1.46c.87.324 1.801.486 2.791.486h9.371c1.332 0 2.527-.29 3.585-.87 1.058-.598 1.895-1.494 2.51-2.69.63-1.194.947-2.679.947-4.454 0-1.451-.18-2.706-.538-3.764-.358-1.058-.862-1.938-1.51-2.637a5.94 5.94 0 00-2.228-1.562 7.377 7.377 0 00-2.766-.512h-9.37zm8.962-11.931v40.353h-8.629V4.543h8.629zm46.062 31.903v6.913h-19.869v-6.913h19.869zM111.552 6.08v37.28h-8.987V6.08h8.987zm14.108 14.8v6.682h-17.309V20.88h17.309zm2.637-14.8v6.939h-19.946v-6.94h19.946zm28.728 14.8v6.913h-19.126V20.88h19.126zm-16.13-14.8v37.28h-8.988V6.08h8.988zm22.173 0v37.28h-8.962V6.08h8.962zm14.185 23.53l13.391-23.53h8.987v37.28h-8.987V19.854L177.253 43.36h-8.987V6.08h8.987v23.53zm36.794-23.53v37.28h-8.962V6.08h8.962zm21.507 0l-13.391 22.532h-9.678l-1.076-8.116h6.12l7.169-14.416h10.856zm-9.32 37.28l-8.731-16.31 6.529-6.017 12.803 22.327h-10.601zm33.235-12.623h8.962c-.12 2.595-.82 4.882-2.1 6.862-1.28 1.98-3.056 3.525-5.326 4.635-2.253 1.092-4.916 1.639-7.988 1.639-2.493 0-4.72-.419-6.683-1.255a13.612 13.612 0 01-4.967-3.61c-1.349-1.57-2.382-3.474-3.099-5.71-.699-2.236-1.049-4.754-1.049-7.553V23.72c0-2.8.367-5.317 1.101-7.554.751-2.253 1.809-4.165 3.175-5.735a13.767 13.767 0 014.967-3.636c1.929-.836 4.071-1.254 6.427-1.254 3.243 0 5.983.58 8.219 1.74 2.236 1.161 3.968 2.757 5.197 4.789 1.229 2.014 1.955 4.31 2.177 6.887h-8.962c-.034-1.4-.273-2.569-.717-3.507a4.43 4.43 0 00-2.099-2.151c-.956-.478-2.228-.717-3.815-.717-1.11 0-2.074.205-2.894.614-.819.41-1.502 1.059-2.048 1.946-.546.888-.956 2.04-1.229 3.457-.256 1.4-.384 3.09-.384 5.07v2.073c0 1.98.119 3.67.358 5.07.239 1.4.623 2.543 1.153 3.431.529.888 1.211 1.545 2.048 1.972.853.41 1.895.614 3.124.614 1.365 0 2.517-.213 3.456-.64a4.84 4.84 0 002.177-1.997c.512-.905.785-2.057.819-3.457z" fill="#983031"/><path d="M7.11 58.277v.996H2.106v-.996H7.11zm-4.812-3.974v9.242H1.073v-9.242h1.225zm5.878 0v9.242H6.957v-9.242h1.219zm6.7 8.068v-3.536c0-.27-.056-.505-.166-.704a1.08 1.08 0 00-.482-.47c-.216-.11-.483-.165-.8-.165-.296 0-.557.05-.78.152a1.36 1.36 0 00-.521.4.876.876 0 00-.184.533h-1.175c0-.245.064-.488.19-.73.127-.24.31-.459.546-.653a2.73 2.73 0 01.864-.47 3.402 3.402 0 011.13-.178c.499 0 .94.085 1.32.254.385.17.686.425.901.768.22.339.33.764.33 1.276v3.2c0 .228.02.471.058.73.042.258.103.48.184.666v.101h-1.226a2.194 2.194 0 01-.14-.54 4.346 4.346 0 01-.05-.634zm.202-2.99l.013.825h-1.187c-.334 0-.633.028-.895.083-.263.05-.482.13-.66.235a1.113 1.113 0 00-.406.4 1.06 1.06 0 00-.14.552c0 .216.048.413.146.59.097.178.243.32.438.426.199.101.442.152.73.152.36 0 .677-.076.952-.228.275-.153.493-.339.654-.56.165-.22.254-.433.266-.64l.502.565c-.03.178-.11.374-.241.59a2.825 2.825 0 01-1.302 1.11c-.296.128-.63.191-1.003.191-.465 0-.873-.09-1.225-.273a2.095 2.095 0 01-.812-.73 1.932 1.932 0 01-.286-1.034c0-.368.072-.692.216-.971a1.87 1.87 0 01.622-.705c.27-.19.597-.334.978-.432.38-.097.806-.146 1.275-.146h1.365zm5.297 3.453l1.91-6.157h1.257l-2.755 7.929c-.063.169-.148.35-.254.545a2.61 2.61 0 01-.393.565 1.878 1.878 0 01-.584.432 1.757 1.757 0 01-.806.171c-.093 0-.212-.012-.356-.038a3.432 3.432 0 01-.304-.063l-.007-.952c.034.004.087.008.159.012a1.89 1.89 0 00.838-.095c.186-.068.343-.184.47-.349a2.08 2.08 0 00.336-.666l.489-1.334zm-1.403-6.157l1.784 5.332.304 1.238-.844.432-2.526-7.002h1.282zm11.46 0v6.868h-1.174v-6.868h1.174zm-.4 3.155v.965c-.237.089-.478.17-.724.241a6.624 6.624 0 01-.768.165 6.162 6.162 0 01-.87.057c-.541 0-1.01-.093-1.409-.279a2.051 2.051 0 01-.92-.857c-.216-.385-.324-.87-.324-1.454v-2.005h1.175v2.005c0 .381.057.69.171.927.114.237.282.413.502.527.22.11.488.165.806.165.304 0 .59-.019.857-.057a6.94 6.94 0 00.774-.165c.25-.068.493-.146.73-.235zm7.6-.178v.952h-3.63v-.952h3.63zm-3.383-2.977v6.868h-1.174v-6.868h1.174zm4.336 0v6.868h-1.18v-6.868h1.18zm2.23 3.51v-.145c0-.496.072-.955.216-1.378.144-.427.352-.798.622-1.11.271-.318.6-.564.984-.737a3.055 3.055 0 011.295-.267c.483 0 .916.09 1.301.267.39.173.72.419.99.736.276.313.485.684.63 1.111.143.423.215.882.215 1.377v.147c0 .495-.072.954-.216 1.377a3.296 3.296 0 01-.628 1.11c-.271.314-.6.56-.984.737a3.09 3.09 0 01-1.295.26c-.483 0-.916-.086-1.301-.26a2.945 2.945 0 01-.99-.736 3.356 3.356 0 01-.623-1.111 4.255 4.255 0 01-.216-1.377zm1.175-.145v.145c0 .343.04.667.12.972.08.3.201.567.362.8.165.232.37.416.616.552.245.13.531.197.857.197.321 0 .603-.066.844-.197.245-.136.449-.32.61-.553.16-.232.28-.499.361-.8.085-.304.127-.628.127-.97v-.147c0-.338-.042-.657-.127-.958a2.468 2.468 0 00-.368-.806 1.749 1.749 0 00-.61-.559 1.708 1.708 0 00-.85-.203c-.322 0-.605.068-.85.203a1.826 1.826 0 00-.61.559 2.58 2.58 0 00-.362.806c-.08.3-.12.62-.12.959zm9.644-.908v.965h-3.097v-.965h3.097zm6.376-2.457v.971h-3.472v-.97h3.472zm-3.3 0v6.868h-1.175v-6.868h1.174zm4.341 0v6.868h-1.18v-6.868h1.18zm3.71 1.32v8.189H61.58v-9.509h1.079l.102 1.32zm4.627 2.057v.133c0 .5-.06.963-.178 1.39a3.416 3.416 0 01-.52 1.105 2.367 2.367 0 01-.832.73 2.4 2.4 0 01-1.136.26 2.9 2.9 0 01-1.155-.215 2.278 2.278 0 01-.85-.629 3.211 3.211 0 01-.56-.99 5.734 5.734 0 01-.279-1.301v-.711c.051-.508.146-.963.286-1.365a3.41 3.41 0 01.552-1.028c.233-.288.514-.506.844-.654a2.7 2.7 0 011.143-.229c.432 0 .814.085 1.149.254.334.165.616.402.844.711.229.31.4.68.514 1.111.119.427.178.904.178 1.428zm-1.18.133v-.133a4.13 4.13 0 00-.109-.965 2.438 2.438 0 00-.336-.8 1.602 1.602 0 00-.571-.545 1.624 1.624 0 00-.832-.203c-.296 0-.554.05-.774.152-.216.101-.4.239-.553.413a2.17 2.17 0 00-.374.584c-.093.215-.163.44-.21.672v1.644c.085.297.204.576.356.838.152.258.355.468.61.629.253.156.573.235.958.235.317 0 .59-.066.819-.197.232-.136.423-.32.571-.553.152-.232.264-.499.336-.8.072-.304.108-.628.108-.97zm3.017 0v-.145c0-.496.072-.955.216-1.378.144-.427.351-.798.622-1.11.27-.318.599-.564.984-.737a3.055 3.055 0 011.295-.267c.482 0 .916.09 1.301.267.39.173.72.419.99.736.275.313.485.684.629 1.111.144.423.215.882.215 1.377v.147c0 .495-.072.954-.215 1.377a3.296 3.296 0 01-.629 1.11c-.27.314-.599.56-.984.737a3.09 3.09 0 01-1.295.26c-.482 0-.916-.086-1.3-.26a2.945 2.945 0 01-.991-.736 3.356 3.356 0 01-.622-1.111 4.252 4.252 0 01-.216-1.377zm1.174-.145v.145c0 .343.04.667.12.972.081.3.202.567.363.8.165.232.37.416.615.552.246.13.531.197.857.197.322 0 .603-.066.845-.197.245-.136.448-.32.609-.553.16-.232.281-.499.362-.8.084-.304.127-.628.127-.97v-.147c0-.338-.043-.657-.127-.958a2.468 2.468 0 00-.368-.806 1.75 1.75 0 00-.61-.559 1.709 1.709 0 00-.85-.203c-.322 0-.605.068-.85.203a1.827 1.827 0 00-.61.559 2.534 2.534 0 00-.362.806c-.08.3-.12.62-.12.959zm8.47 1.643l3.168-5.008h1.18v6.868h-1.18v-5.008l-3.167 5.008h-1.168v-6.868h1.168v5.008zm9.448-1.421h-1.263v-.724h1.168c.326 0 .584-.04.775-.12a.818.818 0 00.406-.35c.08-.148.12-.321.12-.52a.965.965 0 00-.14-.502.95.95 0 00-.43-.387c-.2-.101-.466-.152-.8-.152-.271 0-.517.048-.737.146-.22.093-.396.222-.527.387a.858.858 0 00-.19.546h-1.174c0-.42.118-.779.355-1.08.241-.304.56-.539.959-.704.401-.165.84-.247 1.313-.247.398 0 .754.044 1.067.133.317.085.586.212.806.38a1.6 1.6 0 01.501.623c.119.245.178.531.178.857 0 .233-.055.453-.165.66-.11.207-.269.391-.476.552-.207.157-.46.28-.755.368a3.4 3.4 0 01-.99.134zm-1.263-.445h1.263c.411 0 .773.04 1.086.12.313.077.575.191.787.344.212.152.37.34.476.565.11.22.165.474.165.761 0 .322-.065.612-.197.87a1.82 1.82 0 01-.546.648c-.236.177-.52.313-.85.406-.326.093-.688.14-1.086.14a3.76 3.76 0 01-1.294-.23 2.417 2.417 0 01-1.035-.704c-.271-.321-.406-.73-.406-1.225h1.174c0 .207.066.404.197.59.13.187.313.337.546.451.237.114.51.172.818.172.33 0 .606-.051.826-.153a1.14 1.14 0 00.495-.406.968.968 0 00.171-.552c0-.258-.05-.466-.152-.622a.869.869 0 00-.47-.343c-.207-.076-.474-.114-.8-.114h-1.168v-.718zm9.175.705h-2.253l-.013-.94h1.84c.365 0 .667-.036.909-.107.245-.072.43-.18.552-.324a.793.793 0 00.184-.533.837.837 0 00-.419-.743 1.533 1.533 0 00-.52-.184 3.556 3.556 0 00-.718-.064h-1.504v5.916h-1.175v-6.868h2.68c.435 0 .826.038 1.174.114.35.077.65.193.895.35.25.152.44.347.57.584.132.237.198.516.198.837a1.41 1.41 0 01-.502 1.086 2.03 2.03 0 01-.61.355 3.138 3.138 0 01-.83.172l-.458.349zm0 3.021h-2.678l.584-.952h2.094c.326 0 .597-.04.813-.12a1.02 1.02 0 00.482-.356.946.946 0 00.165-.558c0-.216-.055-.4-.165-.553a.967.967 0 00-.482-.355c-.216-.085-.487-.127-.813-.127h-1.784l.013-.94h2.228l.425.356c.377.03.697.123.959.28.262.156.461.355.597.596.135.237.203.495.203.774 0 .322-.062.605-.184.85a1.626 1.626 0 01-.52.617c-.23.16-.507.283-.832.368-.326.08-.694.12-1.105.12zm4.554-3.358v-.145c0-.496.072-.955.216-1.378.144-.427.351-.798.622-1.11.271-.318.599-.564.984-.737a3.056 3.056 0 011.295-.267c.482 0 .916.09 1.301.267.389.173.719.419.99.736.275.313.485.684.629 1.111.144.423.215.882.215 1.377v.147c0 .495-.071.954-.215 1.377a3.3 3.3 0 01-.629 1.11 2.882 2.882 0 01-.984.737 3.09 3.09 0 01-1.295.26c-.482 0-.916-.086-1.301-.26a2.944 2.944 0 01-.99-.736 3.355 3.355 0 01-.622-1.111 4.25 4.25 0 01-.216-1.377zm1.174-.145v.145c0 .343.041.667.121.972.08.3.201.567.362.8.165.232.37.416.615.552.246.13.532.197.857.197.322 0 .603-.066.845-.197.245-.136.448-.32.609-.553.161-.232.281-.499.362-.8a3.64 3.64 0 00.127-.97v-.147c0-.338-.043-.657-.127-.958a2.48 2.48 0 00-.368-.806 1.748 1.748 0 00-.61-.559 1.705 1.705 0 00-.85-.203c-.322 0-.605.068-.851.203a1.827 1.827 0 00-.609.559 2.535 2.535 0 00-.362.806c-.08.3-.121.62-.121.959zm7.982-3.365h1.174l-.101 2.571c-.026.652-.1 1.215-.223 1.689a4.952 4.952 0 01-.469 1.212 3.65 3.65 0 01-.641.831 4.192 4.192 0 01-.724.565h-.584l.032-.958.241-.006c.14-.166.275-.335.406-.508a3.52 3.52 0 00.362-.629 4.33 4.33 0 00.273-.895c.076-.355.125-.789.146-1.301l.108-2.57zm.292 0h4.132v6.868h-1.174v-5.782h-2.958v-1.086zm-2.127 5.904h7.142v2.99h-1.175v-2.026h-4.792v2.025h-1.181l.006-2.99zm11.841.127c.28 0 .538-.058.775-.172a1.6 1.6 0 00.584-.47 1.31 1.31 0 00.26-.692h1.117a2.1 2.1 0 01-.412 1.137 2.822 2.822 0 01-2.324 1.161c-.516 0-.967-.09-1.352-.273a2.68 2.68 0 01-.952-.749 3.341 3.341 0 01-.565-1.091 4.598 4.598 0 01-.184-1.314v-.267c0-.461.061-.897.184-1.308a3.33 3.33 0 01.565-1.098 2.68 2.68 0 01.952-.749c.385-.182.836-.273 1.352-.273.538 0 1.007.11 1.409.33.403.216.718.512.946.889.233.372.36.796.381 1.27h-1.117a1.697 1.697 0 00-.241-.769 1.51 1.51 0 00-.559-.545 1.563 1.563 0 00-.819-.21c-.359 0-.662.072-.907.216a1.59 1.59 0 00-.578.571c-.14.237-.241.502-.305.794a4.382 4.382 0 00-.089.882v.267c0 .3.03.596.089.888.06.292.159.557.299.794.143.237.336.427.577.571.246.14.55.21.914.21zm7.506-6.03v6.867h-1.181v-6.868h1.181zm2.304 0v.951h-5.745v-.952h5.745zm5.03 3.846h-2.254l-.012-.94h1.841c.364 0 .666-.036.907-.107.246-.072.43-.18.553-.324a.797.797 0 00.184-.533.837.837 0 00-.419-.743 1.534 1.534 0 00-.521-.184 3.553 3.553 0 00-.717-.064h-1.505v5.916h-1.174v-6.868h2.679c.436 0 .827.038 1.174.114.351.077.65.193.895.35.25.152.44.347.572.584.131.237.196.516.196.837 0 .208-.042.405-.127.59a1.44 1.44 0 01-.374.496 2.022 2.022 0 01-.61.355 3.134 3.134 0 01-.831.172l-.457.349zm0 3.021h-2.679l.584-.952h2.095c.326 0 .597-.04.812-.12a1.02 1.02 0 00.483-.356.947.947 0 00.165-.558c0-.216-.055-.4-.165-.553a.969.969 0 00-.483-.355c-.215-.085-.486-.127-.812-.127h-1.784l.013-.94h2.228l.425.356c.377.03.696.123.959.28.262.156.461.355.596.596.136.237.203.495.203.774 0 .322-.061.605-.184.85a1.618 1.618 0 01-.52.617c-.229.16-.506.283-.832.368-.325.08-.694.12-1.104.12zm7.715.127c-.478 0-.912-.08-1.301-.24a2.941 2.941 0 01-.997-.693 3.078 3.078 0 01-.635-1.053 3.867 3.867 0 01-.222-1.334v-.266c0-.559.083-1.056.248-1.492.165-.44.389-.812.672-1.117.284-.305.606-.535.965-.692.36-.156.732-.235 1.117-.235.491 0 .915.085 1.27.254.36.17.654.406.882.711.229.3.398.656.508 1.066.11.407.165.851.165 1.334v.526h-5.129v-.958h3.955v-.089a2.932 2.932 0 00-.191-.889 1.596 1.596 0 00-.507-.71c-.233-.187-.551-.28-.953-.28a1.599 1.599 0 00-1.314.667c-.16.22-.285.488-.374.806a4.081 4.081 0 00-.133 1.098v.267c0 .325.044.632.133.92.093.283.226.533.4.749.178.216.391.385.641.508.254.123.542.184.863.184.415 0 .766-.085 1.054-.254.288-.17.54-.396.755-.68l.711.566a3.265 3.265 0 01-.565.64c-.228.204-.51.369-.844.496-.33.127-.721.19-1.174.19zm9.352-4.018v.952h-3.63v-.952h3.63zm-3.383-2.977v6.868h-1.174v-6.868h1.174zm4.336 0v6.868h-1.181v-6.868h1.181zm7.2 2.977v.952h-3.63v-.952h3.63zm-3.383-2.977v6.868h-1.174v-6.868h1.174zm4.336 0v6.868h-1.181v-6.868h1.181zm2.23 3.51v-.145c0-.496.072-.955.216-1.378.144-.427.351-.798.622-1.11.271-.318.599-.564.984-.737a3.056 3.056 0 011.295-.267c.482 0 .916.09 1.301.267.389.173.719.419.99.736.275.313.485.684.629 1.111.144.423.216.882.216 1.377v.147c0 .495-.072.954-.216 1.377a3.3 3.3 0 01-.629 1.11 2.882 2.882 0 01-.984.737c-.38.174-.812.26-1.295.26-.482 0-.916-.086-1.301-.26a2.944 2.944 0 01-.99-.736 3.355 3.355 0 01-.622-1.111 4.25 4.25 0 01-.216-1.377zm1.174-.145v.145c0 .343.041.667.121.972.08.3.201.567.362.8.165.232.37.416.616.552.245.13.531.197.856.197.322 0 .604-.066.845-.197.245-.136.448-.32.609-.553.161-.232.282-.499.362-.8a3.6 3.6 0 00.127-.97v-.147c0-.338-.042-.657-.127-.958a2.46 2.46 0 00-.368-.806 1.748 1.748 0 00-.61-.559 1.705 1.705 0 00-.85-.203c-.322 0-.605.068-.851.203a1.827 1.827 0 00-.609.559 2.535 2.535 0 00-.362.806c-.08.3-.121.62-.121.959zm10.051 3.63c-.478 0-.912-.08-1.301-.24a2.96 2.96 0 01-.997-.693 3.076 3.076 0 01-.634-1.053 3.867 3.867 0 01-.223-1.334v-.266c0-.559.083-1.056.248-1.492.165-.44.389-.812.673-1.117.283-.305.605-.535.965-.692a2.768 2.768 0 011.117-.235c.491 0 .914.085 1.269.254.36.17.654.406.883.711.228.3.398.656.508 1.066.11.407.165.851.165 1.334v.526h-5.129v-.958h3.954v-.089a2.93 2.93 0 00-.19-.889 1.598 1.598 0 00-.508-.71c-.233-.187-.55-.28-.952-.28a1.596 1.596 0 00-1.314.667c-.161.22-.286.488-.375.806a4.122 4.122 0 00-.133 1.098v.267c0 .325.045.632.133.92.094.283.227.533.4.749.178.216.392.385.641.508.254.123.542.184.864.184.414 0 .766-.085 1.053-.254.288-.17.54-.396.756-.68l.711.566a3.298 3.298 0 01-.565.64 2.69 2.69 0 01-.844.496c-.33.127-.722.19-1.175.19zm8.257-3.484v-.147c0-.495.072-.954.216-1.377.144-.427.351-.798.622-1.11.271-.318.599-.564.984-.737a3.056 3.056 0 011.295-.267c.482 0 .916.09 1.301.267.39.173.72.419.991.736.275.313.484.684.628 1.111.144.423.216.882.216 1.377v.147c0 .495-.072.954-.216 1.377a3.298 3.298 0 01-.628 1.11 2.882 2.882 0 01-.984.737c-.381.174-.813.26-1.295.26a3.13 3.13 0 01-1.302-.26 2.944 2.944 0 01-.99-.736 3.355 3.355 0 01-.622-1.111 4.25 4.25 0 01-.216-1.377zm1.175-.147v.147c0 .342.04.666.12.97.081.301.201.568.362.8.165.233.37.417.616.553.245.13.531.197.857.197.321 0 .603-.066.844-.197.245-.136.449-.32.609-.553.161-.232.282-.499.362-.8a3.6 3.6 0 00.127-.97v-.147c0-.338-.042-.657-.127-.958a2.46 2.46 0 00-.368-.806 1.754 1.754 0 00-.609-.559 1.712 1.712 0 00-.851-.203c-.322 0-.605.068-.851.203a1.827 1.827 0 00-.609.559 2.557 2.557 0 00-.362.806c-.08.3-.12.62-.12.959zm11.606-6.353h.965c0 .414-.064.744-.191.99-.127.24-.3.427-.52.558a2.6 2.6 0 01-.737.299c-.271.067-.552.133-.844.196a3.876 3.876 0 00-1.016.362c-.309.161-.575.39-.799.686-.22.296-.383.681-.489 1.155-.102.474-.129 1.06-.083 1.758v.584h-.965v-.584c0-.782.075-1.466.223-2.05.152-.584.366-1.077.641-1.479.275-.402.601-.721.977-.958.381-.237.8-.4 1.257-.49a8.53 8.53 0 00.851-.202c.237-.076.417-.178.539-.305.127-.127.191-.3.191-.52zm-1.39 3.383c.448 0 .848.078 1.199.235.351.156.65.374.895.654.246.279.432.609.559.99.131.376.197.787.197 1.231v.14c0 .478-.07.922-.21 1.333a3.064 3.064 0 01-.603 1.066 2.75 2.75 0 01-.965.705c-.376.17-.806.254-1.288.254a3.16 3.16 0 01-1.295-.254 2.818 2.818 0 01-.965-.705 3.142 3.142 0 01-.609-1.066 4.214 4.214 0 01-.204-1.333v-.14c0-.106.02-.21.058-.31a2.81 2.81 0 01.139-.312c.059-.106.112-.218.159-.336.157-.381.37-.735.641-1.06.275-.326.603-.589.984-.787a2.76 2.76 0 011.308-.305zm-.229.958c-.432 0-.787.1-1.066.299a1.796 1.796 0 00-.616.793c-.136.326-.203.68-.203 1.06v.14c0 .321.038.626.114.914.076.288.19.544.343.768.156.22.353.394.59.52.241.127.525.19.851.19.326 0 .607-.063.844-.19s.432-.3.584-.52c.152-.224.267-.48.343-.768a3.57 3.57 0 00.114-.914v-.14c0-.288-.038-.56-.114-.819a2.027 2.027 0 00-.349-.685 1.593 1.593 0 00-.591-.47 1.866 1.866 0 00-.844-.178zm7.372-1.352v.965h-3.015v-.965h3.015zm-.114 2.362h2.063c.554 0 1.022.097 1.403.292.381.19.668.454.863.793.199.334.298.715.298 1.143 0 .317-.055.615-.165.895a2.01 2.01 0 01-.495.723c-.216.208-.484.37-.806.489a3.23 3.23 0 01-1.098.171h-2.926v-6.868h1.18v5.904h1.746c.338 0 .607-.062.806-.184.203-.123.349-.282.438-.477a1.45 1.45 0 000-1.218 1.142 1.142 0 00-.438-.495c-.199-.136-.468-.204-.806-.204h-2.063v-.964zm9.378 4.633c-.478 0-.912-.08-1.301-.24a2.951 2.951 0 01-.997-.693 3.078 3.078 0 01-.635-1.053 3.867 3.867 0 01-.222-1.334v-.266c0-.559.083-1.056.248-1.492.165-.44.389-.812.673-1.117a2.88 2.88 0 01.964-.692c.36-.156.733-.235 1.118-.235.491 0 .914.085 1.269.254.36.17.654.406.882.711.229.3.398.656.508 1.066.11.407.165.851.165 1.334v.526h-5.129v-.958h3.955v-.089a2.93 2.93 0 00-.19-.889 1.598 1.598 0 00-.508-.71c-.233-.187-.55-.28-.952-.28a1.603 1.603 0 00-1.314.667c-.161.22-.286.488-.375.806a4.081 4.081 0 00-.133 1.098v.267c0 .325.044.632.133.92.093.283.227.533.4.749.178.216.391.385.641.508.254.123.542.184.863.184.415 0 .766-.085 1.054-.254.288-.17.54-.396.756-.68l.71.566a3.292 3.292 0 01-.564.64c-.229.204-.51.369-.845.496-.33.127-.721.19-1.174.19zm5.931-6.995h1.175l-.102 2.571c-.025.652-.099 1.215-.222 1.689a4.951 4.951 0 01-.47 1.212c-.19.33-.404.607-.641.831a4.192 4.192 0 01-.724.565h-.584l.032-.958.241-.006c.14-.166.275-.335.407-.508a3.52 3.52 0 00.361-.629 4.33 4.33 0 00.273-.895c.076-.355.125-.789.146-1.301l.108-2.57zm.292 0h4.133v6.868h-1.175v-5.782h-2.958v-1.086zm-2.126 5.904h7.141v2.99h-1.174v-2.026h-4.793v2.025h-1.181l.007-2.99zm10.362-.896l3.167-5.008h1.181v6.868h-1.181v-5.008l-3.167 5.008h-1.168v-6.868h1.168v5.008zm11.542-2.03v.951h-3.631v-.952h3.631zm-3.383-2.978v6.868h-1.174v-6.868h1.174zm4.335 0v6.868h-1.18v-6.868h1.18zm5.392 6.995c-.478 0-.912-.08-1.301-.24a2.96 2.96 0 01-.997-.693 3.094 3.094 0 01-.635-1.053 3.867 3.867 0 01-.222-1.334v-.266c0-.559.083-1.056.248-1.492.165-.44.389-.812.673-1.117.283-.305.605-.535.965-.692a2.768 2.768 0 011.117-.235c.491 0 .914.085 1.269.254.36.17.654.406.883.711.228.3.397.656.507 1.066.11.407.165.851.165 1.334v.526h-5.128v-.958h3.954v-.089a2.93 2.93 0 00-.19-.889 1.598 1.598 0 00-.508-.71c-.233-.187-.55-.28-.952-.28a1.603 1.603 0 00-1.314.667c-.161.22-.286.488-.375.806a4.081 4.081 0 00-.133 1.098v.267c0 .325.044.632.133.92.093.283.227.533.4.749.178.216.392.385.641.508.254.123.542.184.864.184.414 0 .766-.085 1.053-.254.288-.17.54-.396.756-.68l.711.566a3.332 3.332 0 01-.565.64c-.229.204-.51.369-.845.496-.33.127-.721.19-1.174.19zm9.353-4.018v.952h-3.631v-.952h3.631zm-3.384-2.977v6.868h-1.174v-6.868h1.174zm4.336 0v6.868h-1.181v-6.868h1.181zm3.811 5.008l3.167-5.008h1.181v6.868h-1.181v-5.008l-3.167 5.008h-1.168v-6.868h1.168v5.008zm9.734 1.987c-.479 0-.912-.08-1.302-.24a2.947 2.947 0 01-.996-.693 3.078 3.078 0 01-.635-1.053 3.867 3.867 0 01-.222-1.334v-.266c0-.559.082-1.056.247-1.492.165-.44.39-.812.673-1.117.284-.305.605-.535.965-.692.36-.156.732-.235 1.117-.235.491 0 .914.085 1.27.254.359.17.654.406.882.711.229.3.398.656.508 1.066.11.407.165.851.165 1.334v.526h-5.129v-.958h3.955v-.089a2.932 2.932 0 00-.191-.889 1.598 1.598 0 00-.508-.71c-.232-.187-.55-.28-.952-.28a1.599 1.599 0 00-1.314.667c-.161.22-.285.488-.374.806a4.08 4.08 0 00-.134 1.098v.267c0 .325.045.632.134.92.093.283.226.533.4.749.177.216.391.385.641.508.254.123.541.184.863.184.415 0 .766-.085 1.054-.254a2.62 2.62 0 00.755-.68l.711.566a3.265 3.265 0 01-.565.64c-.228.204-.51.369-.844.496-.33.127-.722.19-1.174.19z" fill="#2B323C"/></svg>