<svg width="99" height="109" fill="none" xmlns="http://www.w3.org/2000/svg"><path fill-rule="evenodd" clip-rule="evenodd" d="M32.276 62.253l1.083 2.174c.428-.05.44-.072 2.234-4.037.44-.975 1.06-2.327 1.377-3.005.98-2.098 1.757-3.843 1.809-4.063.027-.116-.078-.232-.235-.258-.156-.026-.322-.085-.368-.132-.072-.071.208-.848.73-2.019.573-1.29 1.08-2.541 1.08-2.665 0-.081.092-.223.202-.314.155-.129.348.035.839.712l3.087 4.27c5.838 8.079 6.866 9.477 6.965 9.474.057-.001.682-.85 1.39-1.888.706-1.036 1.89-2.751 2.63-3.81 1.314-1.88 2.001-2.865 4.086-5.856a430.77 430.77 0 001.74-2.517c.395-.579.77-.995.835-.924.064.07.445 1.064.846 2.208.93 2.653 1.081 3.04.951 3.2-.032.04-.083.066-.143.11-.144.105-.263.24-.263.302 0 .06.869 1.88 1.93 4.043 1.062 2.164 1.931 3.996 1.931 4.072 0 .076-.209.138-.463.138-.255 0-.464.06-.464.133 0 .073 1.393 2.448 3.094 5.278 2.4 3.99 3.027 4.917 2.914 5.743-.05.357-.236.694-.478 1.25-1.483 3.411-3.705 5.932-6.377 7.236-1.914.933-3.206 1.215-5.202 1.133-1.43-.058-1.697-.117-2.585-.572-2.616-1.339-4.416-4.185-5.58-8.823-.174-.696-.193-.714-.604-.57l-.425.147.429 1.65c.528 2.034.732 2.601 1.43 3.984.961 1.906 2.411 3.495 4.082 4.476 1.614.946 4.352 1.219 6.6.657 2.922-.73 5.567-2.463 7.256-4.753.737-.998 1.951-3.174 2.16-3.87.064-.213.207-.594.32-.848.696-1.584 1.428-5.713 1.556-8.784.073-1.75.028-2.578-.24-4.391-.11-.74-.184-1.245-.273-1.748-.201-1.14-.479-2.267-1.421-6.11-.915-3.733-1.07-4.49-1.462-7.133-.162-1.095-.163-1.603-.007-2.657.383-2.584.556-7.36.38-10.474-.175-3.094-.18-3.132-.63-5.555-.584-3.135-1.48-6.004-2.694-8.621-.314-.678-.634-1.372-.71-1.541a10.54 10.54 0 00-.522-.925c-.212-.339-.5-.824-.641-1.078-.14-.255-.629-1.005-1.085-1.669-.456-.664-.829-1.23-.829-1.257 0-.253 4.172 1.286 6.255 2.308 3.45 1.692 5.94 3.491 9.192 6.639l1.317 1.274 1.045-.931c.574-.513 1.07-.906 1.1-.875.638.662 4.41 10.344 4.41 11.319 0 .366.181.261 1.517-.874.708-.6 1.31-1.069 1.339-1.04.028.029.19.607.36 1.285.6 2.405.722 3.84.722 8.514 0 2.479.009 4.507.02 4.507.09 0 1.954-.795 2.712-1.156.228-.109.444-.169.48-.134.073.074.018 2.104-.127 4.68-.1 1.79-.705 5.69-1.33 8.59-.188.868-.31 1.61-.27 1.649.039.039.784-.072 1.656-.248.872-.175 1.616-.288 1.653-.25.11.108-.801 2.501-1.747 4.59-.849 1.875-2.159 4.377-2.944 5.624l-.772 1.233c-.21.338-.511.804-.668 1.033-.156.23-.285.473-.285.54 0 .067.875.1 1.945.074l1.944-.048-.284.483c-1.22 2.07-5.881 6.85-9.563 9.805-.8.642-1.454 1.211-1.454 1.265 0 .055.713.265 1.583.468 1.473.344 2.072.468 2.093.656.015.136-.277.307-.762.62-3.722 2.41-8.138 4.715-11.522 6.014l-2.199.844 1.581 1.057 1.642 1.1c.139.096-.368.525-1.115.944-1.453.814-3.668 1.415-10.605 2.879-5.95 1.255-8.48 1.985-10.771 3.11l-1.12.55v4.518c0 2.531.062 4.556.14 4.604.077.048.36-.382.627-.954 1.318-2.814 3.613-5.59 6.646-8.041 2.801-2.263 2.992-2.346 8.957-3.873 2.44-.625 3.323-.85 4.2-1.1.54-.155 1.078-.318 1.977-.591 1.566-.475 4.408-1.731 4.996-2.207.378-.306.276-.435-1.006-1.27-.598-.389-1.028-.76-.956-.825.073-.065 1-.566 2.062-1.113 4.245-2.19 7.076-4.152 9.845-6.824.951-.918 1.396-1.315 1.32-1.534-.065-.19-.528-.245-1.397-.39-.616-.104-1.12-.226-1.12-.272 0-.046.577-.716 1.282-1.489a56.737 56.737 0 006.963-9.476c.561-.964 1.02-1.785 1.02-1.825 0-.04-.694-.047-1.544-.018-.85.029-1.544.005-1.544-.052 0-.058.448-.999.996-2.09 1.958-3.903 3.338-7.966 3.868-11.386l.099-.637-.899.224c-1.872.468-2.235.538-2.326.448-.05-.051-.011-.63.088-1.286.566-3.752.915-12.469.545-13.622l-.132-.409-1.291.764c-.71.42-1.312.743-1.336.717-.025-.026-.118-.81-.207-1.741-.243-2.536-.632-5.83-.713-6.049-.04-.106-.181-.834-.315-1.618-.133-.784-.348-1.771-.477-2.195-.477-1.564-1.023-3.005-1.139-3.005-.065 0-.652.425-1.303.944-.652.519-1.205.917-1.228.886a14.795 14.795 0 01-.388-.905c-.19-.467-.406-.987-.48-1.156-.076-.17-.498-1.14-.94-2.157a42.078 42.078 0 00-2.329-4.628c-.497-.853-1.578-2.38-1.686-2.382-.049 0-.597.59-1.22 1.312-.992 1.154-1.16 1.289-1.378 1.106-2.352-1.969-4.061-3.18-6.152-4.362-4.423-2.5-9.335-4.068-15.639-4.993-2.443-.359-2.782-.373-2.773-.114.003.106.646.643 1.428 1.194 1.643 1.157 3.392 2.676 5.077 4.408 4.479 4.603 7.322 10.22 8.336 16.471.27 1.668.255 7.584-.024 9.4-.392 2.547-.215 6.955.385 9.553.87 3.765 1.06 4.526 1.24 4.96.314.751.785 2.558 1.18 4.517.311 1.55.355 2.206.345 5.24-.007 2.493-.075 3.746-.24 4.463-.23.99-.233.994-.471.617-.346-.548-1.929-3.3-2.535-4.406l-.518-.944 1.224-.195-.459-.776c-.252-.427-.458-.809-.458-.848 0-.039-.477-.92-1.059-1.958a229.767 229.767 0 01-1.718-3.12c-.363-.677-.725-1.314-.805-1.415-.102-.128-.003-.257.328-.428.26-.134.474-.278.474-.32 0-.04-.973-2.054-2.162-4.473-1.19-2.419-2.162-4.434-2.162-4.477 0-.127 2.011-2.97 2.171-3.068.213-.131.166-.904-.141-2.357-.203-.956-.314-1.232-.435-1.079-.09.113-.415.568-.722 1.01l-1.288 1.849c-3.057 4.385-8.851 13.368-10.586 16.414-.277.486-.547.885-.599.886-.052 0-.267-.259-.479-.576-.524-.79-1.94-2.99-2.679-4.165-1.361-2.165-1.842-2.919-5.47-8.586-.923-1.441-2.215-3.47-2.87-4.507l-1.193-1.888-.664 1.47c-.365.809-.702 1.591-.749 1.739-.058.181.286.712 1.07 1.65.634.76 1.155 1.46 1.157 1.558.011.575-2.295 5.45-3.842 8.12-.434.748-.75 1.425-.702 1.502.048.077.332.14.63.14.358 0 .526.066.493.193-.027.106-.767 1.528-1.645 3.16-1.451 2.703-1.87 2.517-1.87 2.517zm19.139-41.957c0-.21.08-.776.177-1.26.102-.508.248-.854.346-.821.094.03.24.57.325 1.2l.156 1.142.887-.018c.489-.01.885.025.88.077-.004.053-.534.49-1.178.971l-1.17.877-1.127-.87c-.62-.48-1.094-.925-1.052-.992.041-.067.453-.078.916-.024.817.096.84.088.84-.282zm-7.5 5.178c-.204-1.355.74-2.897 2.172-3.547 1.623-.737 3.453-.321 5.057 1.15l.425.388-.002 5.875-1.89.013c-1.04.006-2.161.09-2.49.185l-.6.174-.812-.83c-.917-.938-1.706-2.383-1.86-3.409zm8.84-2.406c.496-.521 1.057-.856 2.057-1.227.935-.348 1.618-.341 2.617.023a3.949 3.949 0 012.201 1.957c.681 1.362-.02 3.582-1.637 5.18-.583.577-.831.726-1.081.65-.759-.229-2.87-.4-3.784-.305l-.99.101.18-5.92.436-.459zm-5.896 6.99c.057-.055.531-.147 1.055-.204 1.161-.125 8.074-.035 8.558.11.31.094.348.206.348 1.017v.91l-1.892-.12c-2.392-.151-3.862-.15-6.307.002l-1.945.122.04-.867c.023-.477.087-.913.143-.97zm-1.313 6.757c1.514-1.515 2.879-2.315 4.556-2.673.71-.152 1.024-.226 1.337-.224.298 0 .595.07 1.234.204a8.41 8.41 0 013.683 1.76c1.091.885 1.403 1.218 2.935 3.128.05.063.921-.849 1.934-2.027l1.841-2.143.342 1.487c.188.819.347 1.569.352 1.668.005.098-.425.732-.956 1.408-.916 1.166-2.442 3.23-4.408 5.963a72.863 72.863 0 00-1.87 2.773c-.54.848-1.093 1.715-1.23 1.927-1.236 1.93-3.751 6.747-3.964 7.592-.153.608-.324.523-.782-.389-.586-1.168-5.762-10.211-6.995-12.221-1.193-1.945-2.506-3.869-3.593-5.265-.767-.985-.856-1.237-.599-1.7.27-.488 1.087-2.474 1.087-2.643 0-.29.291-.181.48.18.337.646 2.346 3.66 2.44 3.658.05 0 .265-.26.478-.576.212-.316.976-1.166 1.698-1.887zm11.175.927c-.929-1.001-1.902-1.677-3.073-2.135-1.776-.694-3.778-.475-5.614.615-1.638.972-4.356 4.393-3.922 4.938.496.624 6.125 11.828 6.7 13.335.178.469.392.438.52-.076.316-1.258 4.858-9.91 6.671-12.705.369-.567.67-1.078.67-1.135 0-.279-1.21-2.037-1.952-2.837z" fill="#2B323C"/><path d="M52.44 1.038c-1.944 2.371-5.206 4.998-8.592 6.918-2.115 1.2-2.706 1.484-7.49 3.6a156.2 156.2 0 00-5.784 2.714c-1.397.703-2.613 1.28-2.702 1.28-.11 0-.148-1.176-.118-3.634.044-3.621-.034-4.134-.438-2.875-.194.605-1.266 2.768-1.697 3.426-1.224 1.867-1.85 2.64-3.489 4.315a68.396 68.396 0 00-5.345 6.086c-.667.848-1.296 1.647-1.399 1.776-.101.13-.563.736-1.026 1.349-.462.612-.897 1.113-.965 1.113-.068 0-.124-.256-.124-.568 0-.642-.503-2.552-.946-3.592-.333-.783-1.049-2.172-1.214-2.358-.06-.067-.152.418-.205 1.079-.245 3.111-1.039 6.205-2.422 9.445-1.401 3.28-2.757 7.955-3.24 11.172a85.662 85.662 0 01-.34 2.08c-.085.466-.192 2.39-.239 4.276-.047 1.886-.127 3.426-.18 3.423-.051-.004-.355-.333-.673-.732-.319-.4-.79-.963-1.047-1.253-.257-.29-.934-1.07-1.504-1.733C.69 47.68.17 47.138.107 47.138c-.192 0-.138.527.26 2.51.206 1.035.487 2.47.623 3.191.386 2.037 1.16 5.55 1.392 6.318C3.647 63.342 4.445 65.3 6.21 68.55c1.257 2.314 4.916 7.738 5.826 8.636.283.279.944 1.265.887 1.322-.038.039-1.23-.16-2.65-.443-1.419-.282-2.612-.46-2.652-.396-.04.064.342.397.848.74 1.084.734 2.142 1.613 5.527 4.587 2.622 2.306 5.324 4.47 6.036 4.837.23.119.511.302.623.408.49.462 3.843 2.237 5.52 2.921 1 .408 2.663.969 3.208 1.082.317.066.578.189.58.274.002.167-.24.236-2.591.73-.866.182-1.542.382-1.503.446.082.131 2.895 1.015 4.852 1.524.722.188 1.765.465 2.317.617.552.152 1.247.323 1.544.382 2.623.516 7.835 2.55 10.086 3.935 2.147 1.322 4.125 3.371 5.048 5.232.273.551.556 1.118.628 1.26.073.142.216.714.32 1.271.102.557.244 1.013.314 1.013s.128-2.038.128-4.529V99.87l-.42-.105a8.052 8.052 0 01-1.072-.402c-.36-.163-.733-.296-.831-.296-.099 0-.398-.098-.665-.218-.651-.292-3.46-1.17-3.742-1.17-.123 0-.344-.068-.492-.151-.266-.151-1.69-.526-4.191-1.102-.714-.164-1.355-.334-1.425-.376-.069-.043-.666-.18-1.327-.304-.66-.125-1.653-.323-2.205-.441-.552-.119-1.38-.292-1.841-.385-1.346-.273-1.324-.31.451-.769l2.163-.559a21.311 21.311 0 001.453-.436c.538-.192.572-.233.31-.37-.163-.086-.61-.204-.991-.262-1.978-.303-6.43-1.322-6.815-1.56-.076-.046-.572-.211-1.102-.365-2.178-.634-5.72-2.295-7.835-3.675-2.054-1.34-5.046-4.028-4.634-4.165.148-.05 3.715.371 4.44.523.656.138.363-.325-.694-1.096-2.247-1.64-5.542-4.638-7.453-6.78-.381-.427-.937-1.05-1.234-1.385-1.396-1.57-3.441-4.644-4.507-6.774-.922-1.845-1.903-4.443-2.295-6.08-.389-1.624-.793-4.19-.679-4.304.052-.052 1.29 1.137 2.753 2.641s2.743 2.735 2.845 2.735c.215 0 .247-.252.047-.375-.075-.046-.185-.276-.243-.51a6.327 6.327 0 00-.317-.887c-.276-.609-.894-2.486-1.292-3.93-.271-.985-.4-1.55-.736-3.236-.53-2.66-.672-8.277-.283-11.248.306-2.338 1.073-5.573 1.624-6.857.073-.17.32-.794.55-1.387.62-1.602 1.745-3.93 1.9-3.93.343 0 1.241 2.879 1.25 4.007.01 1.13.363 1.643.557.809.852-3.674 2.938-8.095 5.303-11.236.907-1.205 4.17-4.538 5.108-5.218.347-.252.88-.648 1.184-.881.904-.691 1.003-.606.895.77-.08 1.044-.405 2.966-.636 3.776-.15.526.182.259.559-.45.776-1.46 2.498-3.106 4.818-4.604 1.644-1.063 5.49-3.248 7.54-4.286 3.565-1.804 8.362-4.291 10.178-5.277.375-.203.706-.346.736-.316.171.171-1.32 2.919-2.856 5.263-1.687 2.573-3.183 4.32-6.597 7.705-4.22 4.182-5.935 6.45-8.999 11.897l-.624 1.11 1.494-.749c3.029-1.518 5.137-2.494 5.283-2.446.423.14-.972 1.987-3.704 4.904-3.696 3.947-4.411 4.933-5.346 7.376-.539 1.407-1.286 4.11-1.753 6.338a32.69 32.69 0 01-.37 1.618c-.08.264-.878 5.575-.878 5.852 0 .055 1.199-1.014 2.664-2.374 1.725-1.602 2.682-2.392 2.714-2.242.058.264-.371 2.303-.582 2.77-.077.17-.362 1.002-.633 1.849-.272.847-.585 1.818-.697 2.157-.845 2.56-.808 6.699.085 9.708.535 1.801.846 2.749 1.19 3.621.56 1.425 2.209 4.689 2.918 5.779l.602.924.108-1.849c.132-2.263.389-4.3.627-4.97.2-.563.509-.654.655-.193.167.523 1.837 3.412 2.63 4.547.936 1.34 3.258 3.651 4.569 4.546.543.371 1.295.883 1.672 1.138.912.617 5.6 3.33 5.753 3.33.066 0-.017-.367-.185-.815-1.092-2.912-1.216-6.933-.285-9.244.159-.394.188-.407.36-.154.103.15.271.62.375 1.045.29 1.192 1.352 3.739 2.04 4.9 1.21 2.039 3.066 3.71 4.962 4.467 1.344.537 1.52.553 1.668.16.114-.299-.01-.409-1.214-1.078-2.44-1.355-3.698-2.948-4.968-6.292a94.212 94.212 0 00-.568-1.464c-.269-.668-.735-2.305-1.514-5.316-.386-1.492-.908-2.934-1.267-3.506-.477-.756-.907-.77-1.046-.034-.127.677-.655 2.301-1.64 5.043-1.187 3.302-1.472 4.949-1.16 6.702.063.36.07.655.015.655-.245 0-1.949-.882-2.889-1.497-1.837-1.2-3.933-3.48-5.07-5.514-.447-.8-.935-2.305-1.714-5.29-.778-2.983-.767-2.866-.279-2.923l-1.083-2.174c-.155-.386-.986-2.355-1.278-2.597-.21-.173-.246.17-.325 3.082-.062 2.293-.182 3.779-.4 4.951-.17.922-.343 1.708-.383 1.749-.145.144-1.019-.978-1.475-1.894-.776-1.559-1-2.674-.99-4.92a18.24 18.24 0 011.082-6.24c.317-.9 2.481-6.41 2.754-7.012.687-1.519 2.394-7.184 2.394-7.946 0-.355-.337-.057-1.211 1.07-1.195 1.541-3.544 3.85-4.813 4.732-.539.374-1.041.68-1.116.68-.264 0 .437-3.76.976-5.239 1.16-3.177 1.902-4.25 5.227-7.55 2.59-2.572 4.573-4.952 6.1-7.32 1.306-2.025 1.602-2.505 2.164-3.513l.584-1.048-.88.476c-2.117 1.143-6.75 3.415-6.82 3.345-.138-.138.53-1.279 1.473-2.518 1.205-1.583 2.679-3.087 4.465-4.558 5.785-4.764 10.036-9.965 12.061-14.758.269-.635.549-1.266.622-1.4.176-.32 1.09-3.37 1.09-3.635 0-.402-.287-.188-1.136.848z" fill="#2B323C"/></svg>